<mxfile host="app.diagrams.net" agent="Mozilla/5.0 (Windows NT 10.0; Win64; x64; rv:134.0) Gecko/20100101 Firefox/134.0" version="26.0.10">
  <diagram name="Page-1" id="U0Z8KqSSLCTxt4Mqr973">
    <mxGraphModel dx="2760" dy="810" grid="1" gridSize="10" guides="1" tooltips="1" connect="1" arrows="1" fold="1" page="1" pageScale="1" pageWidth="500" pageHeight="150" math="1" shadow="0">
      <root>
        <mxCell id="0" />
        <mxCell id="1" parent="0" />
        <mxCell id="mAihTgzkiO9ko0TlCXgG-1" value="&lt;font style=&quot;font-size: 24px;&quot;&gt;$$&amp;gt;$$&lt;/font&gt;" style="ellipse;whiteSpace=wrap;html=1;aspect=fixed;fillColor=#F0F0F0;" vertex="1" parent="1">
          <mxGeometry x="-880.75" y="220.25" width="40" height="40" as="geometry" />
        </mxCell>
        <mxCell id="mAihTgzkiO9ko0TlCXgG-2" value="" style="endArrow=classic;html=1;rounded=0;entryX=0;entryY=0;entryDx=0;entryDy=0;exitX=1;exitY=0.5;exitDx=0;exitDy=0;" edge="1" parent="1" source="mAihTgzkiO9ko0TlCXgG-219" target="mAihTgzkiO9ko0TlCXgG-1">
          <mxGeometry width="50" height="50" relative="1" as="geometry">
            <mxPoint x="-940" y="220" as="sourcePoint" />
            <mxPoint x="-880.75" y="201.25" as="targetPoint" />
            <Array as="points">
              <mxPoint x="-912" y="200" />
            </Array>
          </mxGeometry>
        </mxCell>
        <mxCell id="mAihTgzkiO9ko0TlCXgG-3" value="" style="endArrow=classic;html=1;rounded=0;entryX=0;entryY=1;entryDx=0;entryDy=0;exitX=1;exitY=0.5;exitDx=0;exitDy=0;" edge="1" parent="1" source="mAihTgzkiO9ko0TlCXgG-223" target="mAihTgzkiO9ko0TlCXgG-1">
          <mxGeometry width="50" height="50" relative="1" as="geometry">
            <mxPoint x="-940" y="290" as="sourcePoint" />
            <mxPoint x="-890.75" y="271.25" as="targetPoint" />
            <Array as="points">
              <mxPoint x="-920" y="280" />
            </Array>
          </mxGeometry>
        </mxCell>
        <mxCell id="mAihTgzkiO9ko0TlCXgG-4" value="" style="endArrow=classic;html=1;rounded=0;entryX=0;entryY=0.5;entryDx=0;entryDy=0;exitX=1;exitY=0;exitDx=0;exitDy=0;" edge="1" parent="1" source="mAihTgzkiO9ko0TlCXgG-1" target="mAihTgzkiO9ko0TlCXgG-7">
          <mxGeometry width="50" height="50" relative="1" as="geometry">
            <mxPoint x="-870.75" y="321.25" as="sourcePoint" />
            <mxPoint x="-820.75" y="271.25" as="targetPoint" />
            <Array as="points">
              <mxPoint x="-820" y="200" />
            </Array>
          </mxGeometry>
        </mxCell>
        <mxCell id="mAihTgzkiO9ko0TlCXgG-5" value="" style="group" vertex="1" connectable="0" parent="1">
          <mxGeometry x="-770" y="170.25" width="40" height="60" as="geometry" />
        </mxCell>
        <mxCell id="mAihTgzkiO9ko0TlCXgG-6" value="" style="group;strokeWidth=1;fillColor=#9A9B9E;strokeColor=default;container=0;" vertex="1" connectable="0" parent="mAihTgzkiO9ko0TlCXgG-5">
          <mxGeometry width="40" height="60" as="geometry" />
        </mxCell>
        <mxCell id="mAihTgzkiO9ko0TlCXgG-7" value="" style="rounded=0;whiteSpace=wrap;html=1;fillColor=#9A9B9E;" vertex="1" parent="mAihTgzkiO9ko0TlCXgG-5">
          <mxGeometry width="40" height="60" as="geometry" />
        </mxCell>
        <mxCell id="mAihTgzkiO9ko0TlCXgG-8" value="" style="triangle;whiteSpace=wrap;html=1;rotation=90;fillColor=#9A9B9E;" vertex="1" parent="mAihTgzkiO9ko0TlCXgG-5">
          <mxGeometry x="10" y="-10" width="20" height="40" as="geometry" />
        </mxCell>
        <mxCell id="mAihTgzkiO9ko0TlCXgG-9" value="" style="group" vertex="1" connectable="0" parent="1">
          <mxGeometry x="-540" y="210.25" width="40" height="60" as="geometry" />
        </mxCell>
        <mxCell id="mAihTgzkiO9ko0TlCXgG-10" value="" style="group;strokeWidth=1;fillColor=#9A9B9E;strokeColor=default;container=0;" vertex="1" connectable="0" parent="mAihTgzkiO9ko0TlCXgG-9">
          <mxGeometry width="40" height="60" as="geometry" />
        </mxCell>
        <mxCell id="mAihTgzkiO9ko0TlCXgG-11" value="" style="rounded=0;whiteSpace=wrap;html=1;fillColor=#9A9B9E;" vertex="1" parent="mAihTgzkiO9ko0TlCXgG-9">
          <mxGeometry width="40" height="60" as="geometry" />
        </mxCell>
        <mxCell id="mAihTgzkiO9ko0TlCXgG-12" value="" style="triangle;whiteSpace=wrap;html=1;rotation=90;fillColor=#9A9B9E;" vertex="1" parent="mAihTgzkiO9ko0TlCXgG-9">
          <mxGeometry x="10" y="-10" width="20" height="40" as="geometry" />
        </mxCell>
        <mxCell id="mAihTgzkiO9ko0TlCXgG-13" value="" style="group" vertex="1" connectable="0" parent="1">
          <mxGeometry x="-770" y="250" width="40" height="60" as="geometry" />
        </mxCell>
        <mxCell id="mAihTgzkiO9ko0TlCXgG-14" value="" style="group;strokeWidth=1;fillColor=#9A9B9E;strokeColor=default;container=0;" vertex="1" connectable="0" parent="mAihTgzkiO9ko0TlCXgG-13">
          <mxGeometry width="40" height="60" as="geometry" />
        </mxCell>
        <mxCell id="mAihTgzkiO9ko0TlCXgG-15" value="" style="rounded=0;whiteSpace=wrap;html=1;fillColor=#9A9B9E;" vertex="1" parent="mAihTgzkiO9ko0TlCXgG-13">
          <mxGeometry width="40" height="60" as="geometry" />
        </mxCell>
        <mxCell id="mAihTgzkiO9ko0TlCXgG-16" value="" style="triangle;whiteSpace=wrap;html=1;rotation=90;fillColor=#9A9B9E;" vertex="1" parent="mAihTgzkiO9ko0TlCXgG-13">
          <mxGeometry x="10" y="-10" width="20" height="40" as="geometry" />
        </mxCell>
        <mxCell id="mAihTgzkiO9ko0TlCXgG-17" value="&lt;font style=&quot;font-size: 24px;&quot;&gt;$$&amp;gt;$$&lt;/font&gt;" style="ellipse;whiteSpace=wrap;html=1;aspect=fixed;fillColor=#F0F0F0;" vertex="1" parent="1">
          <mxGeometry x="-650" y="220.25" width="40" height="40" as="geometry" />
        </mxCell>
        <mxCell id="mAihTgzkiO9ko0TlCXgG-18" value="&lt;font style=&quot;font-size: 24px;&quot;&gt;$$&amp;gt;$$&lt;/font&gt;" style="ellipse;whiteSpace=wrap;html=1;aspect=fixed;fillColor=#F0F0F0;" vertex="1" parent="1">
          <mxGeometry x="-650" y="380" width="40" height="40" as="geometry" />
        </mxCell>
        <mxCell id="mAihTgzkiO9ko0TlCXgG-19" value="" style="group" vertex="1" connectable="0" parent="1">
          <mxGeometry x="-540" y="370" width="40" height="60" as="geometry" />
        </mxCell>
        <mxCell id="mAihTgzkiO9ko0TlCXgG-20" value="" style="group;strokeWidth=1;fillColor=#9A9B9E;strokeColor=default;container=0;" vertex="1" connectable="0" parent="mAihTgzkiO9ko0TlCXgG-19">
          <mxGeometry width="40" height="60" as="geometry" />
        </mxCell>
        <mxCell id="mAihTgzkiO9ko0TlCXgG-21" value="" style="rounded=0;whiteSpace=wrap;html=1;fillColor=#9A9B9E;" vertex="1" parent="mAihTgzkiO9ko0TlCXgG-19">
          <mxGeometry width="40" height="60" as="geometry" />
        </mxCell>
        <mxCell id="mAihTgzkiO9ko0TlCXgG-22" value="" style="triangle;whiteSpace=wrap;html=1;rotation=90;fillColor=#9A9B9E;" vertex="1" parent="mAihTgzkiO9ko0TlCXgG-19">
          <mxGeometry x="10" y="-10" width="20" height="40" as="geometry" />
        </mxCell>
        <mxCell id="mAihTgzkiO9ko0TlCXgG-23" value="" style="endArrow=classic;html=1;rounded=0;entryX=0;entryY=0.5;entryDx=0;entryDy=0;exitX=1;exitY=1;exitDx=0;exitDy=0;" edge="1" parent="1" source="mAihTgzkiO9ko0TlCXgG-1" target="mAihTgzkiO9ko0TlCXgG-15">
          <mxGeometry width="50" height="50" relative="1" as="geometry">
            <mxPoint x="-847" y="280" as="sourcePoint" />
            <mxPoint x="-800" y="310" as="targetPoint" />
            <Array as="points">
              <mxPoint x="-820" y="280" />
            </Array>
          </mxGeometry>
        </mxCell>
        <mxCell id="mAihTgzkiO9ko0TlCXgG-24" value="&lt;font style=&quot;font-size: 24px;&quot;&gt;$$&amp;gt;$$&lt;/font&gt;" style="ellipse;whiteSpace=wrap;html=1;aspect=fixed;fillColor=#F0F0F0;" vertex="1" parent="1">
          <mxGeometry x="-880.75" y="380" width="40" height="40" as="geometry" />
        </mxCell>
        <mxCell id="mAihTgzkiO9ko0TlCXgG-25" value="" style="endArrow=classic;html=1;rounded=0;entryX=0;entryY=0;entryDx=0;entryDy=0;exitX=1;exitY=0.5;exitDx=0;exitDy=0;" edge="1" parent="1" source="mAihTgzkiO9ko0TlCXgG-227" target="mAihTgzkiO9ko0TlCXgG-24">
          <mxGeometry width="50" height="50" relative="1" as="geometry">
            <mxPoint x="-930" y="340" as="sourcePoint" />
            <mxPoint x="-880.75" y="361" as="targetPoint" />
            <Array as="points">
              <mxPoint x="-912" y="359.75" />
            </Array>
          </mxGeometry>
        </mxCell>
        <mxCell id="mAihTgzkiO9ko0TlCXgG-26" value="" style="endArrow=classic;html=1;rounded=0;entryX=0;entryY=1;entryDx=0;entryDy=0;exitX=1;exitY=0.5;exitDx=0;exitDy=0;" edge="1" parent="1" source="mAihTgzkiO9ko0TlCXgG-231" target="mAihTgzkiO9ko0TlCXgG-24">
          <mxGeometry width="50" height="50" relative="1" as="geometry">
            <mxPoint x="-940" y="450" as="sourcePoint" />
            <mxPoint x="-890.75" y="431" as="targetPoint" />
            <Array as="points">
              <mxPoint x="-920" y="439.75" />
            </Array>
          </mxGeometry>
        </mxCell>
        <mxCell id="mAihTgzkiO9ko0TlCXgG-27" value="" style="endArrow=classic;html=1;rounded=0;entryX=0;entryY=0.5;entryDx=0;entryDy=0;exitX=1;exitY=0;exitDx=0;exitDy=0;" edge="1" parent="1" source="mAihTgzkiO9ko0TlCXgG-24" target="mAihTgzkiO9ko0TlCXgG-30">
          <mxGeometry width="50" height="50" relative="1" as="geometry">
            <mxPoint x="-870.75" y="481" as="sourcePoint" />
            <mxPoint x="-820.75" y="431" as="targetPoint" />
            <Array as="points">
              <mxPoint x="-820" y="359.75" />
            </Array>
          </mxGeometry>
        </mxCell>
        <mxCell id="mAihTgzkiO9ko0TlCXgG-28" value="" style="group" vertex="1" connectable="0" parent="1">
          <mxGeometry x="-770" y="330" width="40" height="60" as="geometry" />
        </mxCell>
        <mxCell id="mAihTgzkiO9ko0TlCXgG-29" value="" style="group;strokeWidth=1;fillColor=#9A9B9E;strokeColor=default;container=0;" vertex="1" connectable="0" parent="mAihTgzkiO9ko0TlCXgG-28">
          <mxGeometry width="40" height="60" as="geometry" />
        </mxCell>
        <mxCell id="mAihTgzkiO9ko0TlCXgG-30" value="" style="rounded=0;whiteSpace=wrap;html=1;fillColor=#9A9B9E;" vertex="1" parent="mAihTgzkiO9ko0TlCXgG-28">
          <mxGeometry width="40" height="60" as="geometry" />
        </mxCell>
        <mxCell id="mAihTgzkiO9ko0TlCXgG-31" value="" style="triangle;whiteSpace=wrap;html=1;rotation=90;fillColor=#9A9B9E;" vertex="1" parent="mAihTgzkiO9ko0TlCXgG-28">
          <mxGeometry x="10" y="-10" width="20" height="40" as="geometry" />
        </mxCell>
        <mxCell id="mAihTgzkiO9ko0TlCXgG-32" value="" style="group" vertex="1" connectable="0" parent="1">
          <mxGeometry x="-770" y="409.75" width="40" height="60" as="geometry" />
        </mxCell>
        <mxCell id="mAihTgzkiO9ko0TlCXgG-33" value="" style="group;strokeWidth=1;fillColor=#9A9B9E;strokeColor=default;container=0;" vertex="1" connectable="0" parent="mAihTgzkiO9ko0TlCXgG-32">
          <mxGeometry width="40" height="60" as="geometry" />
        </mxCell>
        <mxCell id="mAihTgzkiO9ko0TlCXgG-34" value="" style="rounded=0;whiteSpace=wrap;html=1;fillColor=#9A9B9E;" vertex="1" parent="mAihTgzkiO9ko0TlCXgG-32">
          <mxGeometry width="40" height="60" as="geometry" />
        </mxCell>
        <mxCell id="mAihTgzkiO9ko0TlCXgG-35" value="" style="triangle;whiteSpace=wrap;html=1;rotation=90;fillColor=#9A9B9E;" vertex="1" parent="mAihTgzkiO9ko0TlCXgG-32">
          <mxGeometry x="10" y="-10" width="20" height="40" as="geometry" />
        </mxCell>
        <mxCell id="mAihTgzkiO9ko0TlCXgG-36" value="" style="endArrow=classic;html=1;rounded=0;entryX=0;entryY=0.5;entryDx=0;entryDy=0;exitX=1;exitY=1;exitDx=0;exitDy=0;" edge="1" parent="1" source="mAihTgzkiO9ko0TlCXgG-24" target="mAihTgzkiO9ko0TlCXgG-34">
          <mxGeometry width="50" height="50" relative="1" as="geometry">
            <mxPoint x="-847" y="439.75" as="sourcePoint" />
            <mxPoint x="-800" y="469.75" as="targetPoint" />
            <Array as="points">
              <mxPoint x="-820" y="439.75" />
            </Array>
          </mxGeometry>
        </mxCell>
        <mxCell id="mAihTgzkiO9ko0TlCXgG-37" value="" style="endArrow=classic;html=1;rounded=0;entryX=0;entryY=0;entryDx=0;entryDy=0;exitX=1;exitY=0.5;exitDx=0;exitDy=0;" edge="1" parent="1" source="mAihTgzkiO9ko0TlCXgG-7" target="mAihTgzkiO9ko0TlCXgG-17">
          <mxGeometry width="50" height="50" relative="1" as="geometry">
            <mxPoint x="-710" y="199.25" as="sourcePoint" />
            <mxPoint x="-625" y="225" as="targetPoint" />
            <Array as="points">
              <mxPoint x="-680" y="200" />
            </Array>
          </mxGeometry>
        </mxCell>
        <mxCell id="mAihTgzkiO9ko0TlCXgG-38" value="" style="endArrow=classic;html=1;rounded=0;exitX=1;exitY=0.5;exitDx=0;exitDy=0;entryX=0;entryY=1;entryDx=0;entryDy=0;" edge="1" parent="1" source="mAihTgzkiO9ko0TlCXgG-30" target="mAihTgzkiO9ko0TlCXgG-17">
          <mxGeometry width="50" height="50" relative="1" as="geometry">
            <mxPoint x="-700" y="380" as="sourcePoint" />
            <mxPoint x="-650" y="330" as="targetPoint" />
            <Array as="points">
              <mxPoint x="-680" y="360" />
            </Array>
          </mxGeometry>
        </mxCell>
        <mxCell id="mAihTgzkiO9ko0TlCXgG-39" value="" style="endArrow=classic;html=1;rounded=0;exitX=1;exitY=0.5;exitDx=0;exitDy=0;entryX=0;entryY=0;entryDx=0;entryDy=0;" edge="1" parent="1" source="mAihTgzkiO9ko0TlCXgG-15" target="mAihTgzkiO9ko0TlCXgG-18">
          <mxGeometry width="50" height="50" relative="1" as="geometry">
            <mxPoint x="-690" y="330" as="sourcePoint" />
            <mxPoint x="-640" y="280" as="targetPoint" />
            <Array as="points">
              <mxPoint x="-680" y="280" />
            </Array>
          </mxGeometry>
        </mxCell>
        <mxCell id="mAihTgzkiO9ko0TlCXgG-40" value="" style="endArrow=classic;html=1;rounded=0;exitX=1;exitY=0.5;exitDx=0;exitDy=0;entryX=0;entryY=1;entryDx=0;entryDy=0;" edge="1" parent="1" source="mAihTgzkiO9ko0TlCXgG-34" target="mAihTgzkiO9ko0TlCXgG-18">
          <mxGeometry width="50" height="50" relative="1" as="geometry">
            <mxPoint x="-660" y="470" as="sourcePoint" />
            <mxPoint x="-610" y="420" as="targetPoint" />
            <Array as="points">
              <mxPoint x="-680" y="440" />
            </Array>
          </mxGeometry>
        </mxCell>
        <mxCell id="mAihTgzkiO9ko0TlCXgG-41" value="" style="endArrow=classic;html=1;rounded=0;exitX=1;exitY=0.5;exitDx=0;exitDy=0;entryX=0;entryY=0.5;entryDx=0;entryDy=0;" edge="1" parent="1" source="mAihTgzkiO9ko0TlCXgG-17" target="mAihTgzkiO9ko0TlCXgG-11">
          <mxGeometry width="50" height="50" relative="1" as="geometry">
            <mxPoint x="-570" y="350" as="sourcePoint" />
            <mxPoint x="-520" y="300" as="targetPoint" />
          </mxGeometry>
        </mxCell>
        <mxCell id="mAihTgzkiO9ko0TlCXgG-42" value="" style="endArrow=classic;html=1;rounded=0;exitX=1;exitY=0.5;exitDx=0;exitDy=0;entryX=0;entryY=0.5;entryDx=0;entryDy=0;" edge="1" parent="1" source="mAihTgzkiO9ko0TlCXgG-18" target="mAihTgzkiO9ko0TlCXgG-21">
          <mxGeometry width="50" height="50" relative="1" as="geometry">
            <mxPoint x="-590" y="380" as="sourcePoint" />
            <mxPoint x="-540" y="330" as="targetPoint" />
          </mxGeometry>
        </mxCell>
        <mxCell id="mAihTgzkiO9ko0TlCXgG-43" value="&lt;font style=&quot;font-size: 24px;&quot;&gt;$$&amp;gt;$$&lt;/font&gt;" style="ellipse;whiteSpace=wrap;html=1;aspect=fixed;fillColor=#F0F0F0;" vertex="1" parent="1">
          <mxGeometry x="-880.75" y="538.25" width="40" height="40" as="geometry" />
        </mxCell>
        <mxCell id="mAihTgzkiO9ko0TlCXgG-44" value="" style="endArrow=classic;html=1;rounded=0;entryX=0;entryY=0;entryDx=0;entryDy=0;exitX=1;exitY=0.5;exitDx=0;exitDy=0;" edge="1" parent="1" source="mAihTgzkiO9ko0TlCXgG-235" target="mAihTgzkiO9ko0TlCXgG-43">
          <mxGeometry width="50" height="50" relative="1" as="geometry">
            <mxPoint x="-940" y="500" as="sourcePoint" />
            <mxPoint x="-880.75" y="519.25" as="targetPoint" />
            <Array as="points">
              <mxPoint x="-912" y="518" />
            </Array>
          </mxGeometry>
        </mxCell>
        <mxCell id="mAihTgzkiO9ko0TlCXgG-45" value="" style="endArrow=classic;html=1;rounded=0;entryX=0;entryY=1;entryDx=0;entryDy=0;exitX=1;exitY=0.5;exitDx=0;exitDy=0;" edge="1" parent="1" source="mAihTgzkiO9ko0TlCXgG-239" target="mAihTgzkiO9ko0TlCXgG-43">
          <mxGeometry width="50" height="50" relative="1" as="geometry">
            <mxPoint x="-950" y="610" as="sourcePoint" />
            <mxPoint x="-890.75" y="589.25" as="targetPoint" />
            <Array as="points">
              <mxPoint x="-920" y="598" />
            </Array>
          </mxGeometry>
        </mxCell>
        <mxCell id="mAihTgzkiO9ko0TlCXgG-46" value="" style="endArrow=classic;html=1;rounded=0;entryX=0;entryY=0.5;entryDx=0;entryDy=0;exitX=1;exitY=0;exitDx=0;exitDy=0;" edge="1" parent="1" source="mAihTgzkiO9ko0TlCXgG-43" target="mAihTgzkiO9ko0TlCXgG-49">
          <mxGeometry width="50" height="50" relative="1" as="geometry">
            <mxPoint x="-870.75" y="639.25" as="sourcePoint" />
            <mxPoint x="-820.75" y="589.25" as="targetPoint" />
            <Array as="points">
              <mxPoint x="-820" y="518" />
            </Array>
          </mxGeometry>
        </mxCell>
        <mxCell id="mAihTgzkiO9ko0TlCXgG-47" value="" style="group" vertex="1" connectable="0" parent="1">
          <mxGeometry x="-770" y="488.25" width="40" height="60" as="geometry" />
        </mxCell>
        <mxCell id="mAihTgzkiO9ko0TlCXgG-48" value="" style="group;strokeWidth=1;fillColor=#9A9B9E;strokeColor=default;container=0;" vertex="1" connectable="0" parent="mAihTgzkiO9ko0TlCXgG-47">
          <mxGeometry width="40" height="60" as="geometry" />
        </mxCell>
        <mxCell id="mAihTgzkiO9ko0TlCXgG-49" value="" style="rounded=0;whiteSpace=wrap;html=1;fillColor=#9A9B9E;" vertex="1" parent="mAihTgzkiO9ko0TlCXgG-47">
          <mxGeometry width="40" height="60" as="geometry" />
        </mxCell>
        <mxCell id="mAihTgzkiO9ko0TlCXgG-50" value="" style="triangle;whiteSpace=wrap;html=1;rotation=90;fillColor=#9A9B9E;" vertex="1" parent="mAihTgzkiO9ko0TlCXgG-47">
          <mxGeometry x="10" y="-10" width="20" height="40" as="geometry" />
        </mxCell>
        <mxCell id="mAihTgzkiO9ko0TlCXgG-51" value="" style="group" vertex="1" connectable="0" parent="1">
          <mxGeometry x="-540" y="528.25" width="40" height="60" as="geometry" />
        </mxCell>
        <mxCell id="mAihTgzkiO9ko0TlCXgG-52" value="" style="group;strokeWidth=1;fillColor=#9A9B9E;strokeColor=default;container=0;" vertex="1" connectable="0" parent="mAihTgzkiO9ko0TlCXgG-51">
          <mxGeometry width="40" height="60" as="geometry" />
        </mxCell>
        <mxCell id="mAihTgzkiO9ko0TlCXgG-53" value="" style="rounded=0;whiteSpace=wrap;html=1;fillColor=#9A9B9E;" vertex="1" parent="mAihTgzkiO9ko0TlCXgG-51">
          <mxGeometry width="40" height="60" as="geometry" />
        </mxCell>
        <mxCell id="mAihTgzkiO9ko0TlCXgG-54" value="" style="triangle;whiteSpace=wrap;html=1;rotation=90;fillColor=#9A9B9E;" vertex="1" parent="mAihTgzkiO9ko0TlCXgG-51">
          <mxGeometry x="10" y="-10" width="20" height="40" as="geometry" />
        </mxCell>
        <mxCell id="mAihTgzkiO9ko0TlCXgG-55" value="" style="group" vertex="1" connectable="0" parent="1">
          <mxGeometry x="-770" y="568" width="40" height="60" as="geometry" />
        </mxCell>
        <mxCell id="mAihTgzkiO9ko0TlCXgG-56" value="" style="group;strokeWidth=1;fillColor=#9A9B9E;strokeColor=default;container=0;" vertex="1" connectable="0" parent="mAihTgzkiO9ko0TlCXgG-55">
          <mxGeometry width="40" height="60" as="geometry" />
        </mxCell>
        <mxCell id="mAihTgzkiO9ko0TlCXgG-57" value="" style="rounded=0;whiteSpace=wrap;html=1;fillColor=#9A9B9E;" vertex="1" parent="mAihTgzkiO9ko0TlCXgG-55">
          <mxGeometry width="40" height="60" as="geometry" />
        </mxCell>
        <mxCell id="mAihTgzkiO9ko0TlCXgG-58" value="" style="triangle;whiteSpace=wrap;html=1;rotation=90;fillColor=#9A9B9E;" vertex="1" parent="mAihTgzkiO9ko0TlCXgG-55">
          <mxGeometry x="10" y="-10" width="20" height="40" as="geometry" />
        </mxCell>
        <mxCell id="mAihTgzkiO9ko0TlCXgG-59" value="&lt;font style=&quot;font-size: 24px;&quot;&gt;$$&amp;gt;$$&lt;/font&gt;" style="ellipse;whiteSpace=wrap;html=1;aspect=fixed;fillColor=#F0F0F0;" vertex="1" parent="1">
          <mxGeometry x="-650" y="538.25" width="40" height="40" as="geometry" />
        </mxCell>
        <mxCell id="mAihTgzkiO9ko0TlCXgG-60" value="&lt;font style=&quot;font-size: 24px;&quot;&gt;$$&amp;gt;$$&lt;/font&gt;" style="ellipse;whiteSpace=wrap;html=1;aspect=fixed;fillColor=#F0F0F0;" vertex="1" parent="1">
          <mxGeometry x="-650" y="698" width="40" height="40" as="geometry" />
        </mxCell>
        <mxCell id="mAihTgzkiO9ko0TlCXgG-61" value="" style="group" vertex="1" connectable="0" parent="1">
          <mxGeometry x="-540" y="688" width="40" height="60" as="geometry" />
        </mxCell>
        <mxCell id="mAihTgzkiO9ko0TlCXgG-62" value="" style="group;strokeWidth=1;fillColor=#9A9B9E;strokeColor=default;container=0;" vertex="1" connectable="0" parent="mAihTgzkiO9ko0TlCXgG-61">
          <mxGeometry width="40" height="60" as="geometry" />
        </mxCell>
        <mxCell id="mAihTgzkiO9ko0TlCXgG-63" value="" style="rounded=0;whiteSpace=wrap;html=1;fillColor=#9A9B9E;" vertex="1" parent="mAihTgzkiO9ko0TlCXgG-61">
          <mxGeometry width="40" height="60" as="geometry" />
        </mxCell>
        <mxCell id="mAihTgzkiO9ko0TlCXgG-64" value="" style="triangle;whiteSpace=wrap;html=1;rotation=90;fillColor=#9A9B9E;" vertex="1" parent="mAihTgzkiO9ko0TlCXgG-61">
          <mxGeometry x="10" y="-10" width="20" height="40" as="geometry" />
        </mxCell>
        <mxCell id="mAihTgzkiO9ko0TlCXgG-65" value="" style="endArrow=classic;html=1;rounded=0;entryX=0;entryY=0.5;entryDx=0;entryDy=0;exitX=1;exitY=1;exitDx=0;exitDy=0;" edge="1" parent="1" source="mAihTgzkiO9ko0TlCXgG-43" target="mAihTgzkiO9ko0TlCXgG-57">
          <mxGeometry width="50" height="50" relative="1" as="geometry">
            <mxPoint x="-847" y="598" as="sourcePoint" />
            <mxPoint x="-800" y="628" as="targetPoint" />
            <Array as="points">
              <mxPoint x="-820" y="598" />
            </Array>
          </mxGeometry>
        </mxCell>
        <mxCell id="mAihTgzkiO9ko0TlCXgG-66" value="&lt;font style=&quot;font-size: 24px;&quot;&gt;$$&amp;gt;$$&lt;/font&gt;" style="ellipse;whiteSpace=wrap;html=1;aspect=fixed;fillColor=#F0F0F0;" vertex="1" parent="1">
          <mxGeometry x="-880.75" y="698" width="40" height="40" as="geometry" />
        </mxCell>
        <mxCell id="mAihTgzkiO9ko0TlCXgG-67" value="" style="endArrow=classic;html=1;rounded=0;entryX=0;entryY=0;entryDx=0;entryDy=0;exitX=1;exitY=0.5;exitDx=0;exitDy=0;" edge="1" parent="1" source="mAihTgzkiO9ko0TlCXgG-243" target="mAihTgzkiO9ko0TlCXgG-66">
          <mxGeometry width="50" height="50" relative="1" as="geometry">
            <mxPoint x="-940" y="660" as="sourcePoint" />
            <mxPoint x="-880.75" y="679" as="targetPoint" />
            <Array as="points">
              <mxPoint x="-912" y="677.75" />
            </Array>
          </mxGeometry>
        </mxCell>
        <mxCell id="mAihTgzkiO9ko0TlCXgG-68" value="" style="endArrow=classic;html=1;rounded=0;entryX=0;entryY=1;entryDx=0;entryDy=0;exitX=1;exitY=0.5;exitDx=0;exitDy=0;" edge="1" parent="1" source="mAihTgzkiO9ko0TlCXgG-247" target="mAihTgzkiO9ko0TlCXgG-66">
          <mxGeometry width="50" height="50" relative="1" as="geometry">
            <mxPoint x="-950" y="780" as="sourcePoint" />
            <mxPoint x="-890.75" y="749" as="targetPoint" />
            <Array as="points">
              <mxPoint x="-920" y="757.75" />
            </Array>
          </mxGeometry>
        </mxCell>
        <mxCell id="mAihTgzkiO9ko0TlCXgG-69" value="" style="endArrow=classic;html=1;rounded=0;entryX=0;entryY=0.5;entryDx=0;entryDy=0;exitX=1;exitY=0;exitDx=0;exitDy=0;" edge="1" parent="1" source="mAihTgzkiO9ko0TlCXgG-66" target="mAihTgzkiO9ko0TlCXgG-72">
          <mxGeometry width="50" height="50" relative="1" as="geometry">
            <mxPoint x="-870.75" y="799" as="sourcePoint" />
            <mxPoint x="-820.75" y="749" as="targetPoint" />
            <Array as="points">
              <mxPoint x="-820" y="677.75" />
            </Array>
          </mxGeometry>
        </mxCell>
        <mxCell id="mAihTgzkiO9ko0TlCXgG-70" value="" style="group" vertex="1" connectable="0" parent="1">
          <mxGeometry x="-770" y="648" width="40" height="60" as="geometry" />
        </mxCell>
        <mxCell id="mAihTgzkiO9ko0TlCXgG-71" value="" style="group;strokeWidth=1;fillColor=#9A9B9E;strokeColor=default;container=0;" vertex="1" connectable="0" parent="mAihTgzkiO9ko0TlCXgG-70">
          <mxGeometry width="40" height="60" as="geometry" />
        </mxCell>
        <mxCell id="mAihTgzkiO9ko0TlCXgG-72" value="" style="rounded=0;whiteSpace=wrap;html=1;fillColor=#9A9B9E;" vertex="1" parent="mAihTgzkiO9ko0TlCXgG-70">
          <mxGeometry width="40" height="60" as="geometry" />
        </mxCell>
        <mxCell id="mAihTgzkiO9ko0TlCXgG-73" value="" style="triangle;whiteSpace=wrap;html=1;rotation=90;fillColor=#9A9B9E;" vertex="1" parent="mAihTgzkiO9ko0TlCXgG-70">
          <mxGeometry x="10" y="-10" width="20" height="40" as="geometry" />
        </mxCell>
        <mxCell id="mAihTgzkiO9ko0TlCXgG-74" value="" style="group" vertex="1" connectable="0" parent="1">
          <mxGeometry x="-770" y="727.75" width="40" height="60" as="geometry" />
        </mxCell>
        <mxCell id="mAihTgzkiO9ko0TlCXgG-75" value="" style="group;strokeWidth=1;fillColor=#9A9B9E;strokeColor=default;container=0;" vertex="1" connectable="0" parent="mAihTgzkiO9ko0TlCXgG-74">
          <mxGeometry width="40" height="60" as="geometry" />
        </mxCell>
        <mxCell id="mAihTgzkiO9ko0TlCXgG-76" value="" style="rounded=0;whiteSpace=wrap;html=1;fillColor=#9A9B9E;" vertex="1" parent="mAihTgzkiO9ko0TlCXgG-74">
          <mxGeometry width="40" height="60" as="geometry" />
        </mxCell>
        <mxCell id="mAihTgzkiO9ko0TlCXgG-77" value="" style="triangle;whiteSpace=wrap;html=1;rotation=90;fillColor=#9A9B9E;" vertex="1" parent="mAihTgzkiO9ko0TlCXgG-74">
          <mxGeometry x="10" y="-10" width="20" height="40" as="geometry" />
        </mxCell>
        <mxCell id="mAihTgzkiO9ko0TlCXgG-78" value="" style="endArrow=classic;html=1;rounded=0;entryX=0;entryY=0.5;entryDx=0;entryDy=0;exitX=1;exitY=1;exitDx=0;exitDy=0;" edge="1" parent="1" source="mAihTgzkiO9ko0TlCXgG-66" target="mAihTgzkiO9ko0TlCXgG-76">
          <mxGeometry width="50" height="50" relative="1" as="geometry">
            <mxPoint x="-847" y="757.75" as="sourcePoint" />
            <mxPoint x="-800" y="787.75" as="targetPoint" />
            <Array as="points">
              <mxPoint x="-820" y="757.75" />
            </Array>
          </mxGeometry>
        </mxCell>
        <mxCell id="mAihTgzkiO9ko0TlCXgG-79" value="" style="endArrow=classic;html=1;rounded=0;entryX=0;entryY=0;entryDx=0;entryDy=0;exitX=1;exitY=0.5;exitDx=0;exitDy=0;" edge="1" parent="1" source="mAihTgzkiO9ko0TlCXgG-49" target="mAihTgzkiO9ko0TlCXgG-59">
          <mxGeometry width="50" height="50" relative="1" as="geometry">
            <mxPoint x="-710" y="517.25" as="sourcePoint" />
            <mxPoint x="-625" y="543" as="targetPoint" />
            <Array as="points">
              <mxPoint x="-680" y="518" />
            </Array>
          </mxGeometry>
        </mxCell>
        <mxCell id="mAihTgzkiO9ko0TlCXgG-80" value="" style="endArrow=classic;html=1;rounded=0;exitX=1;exitY=0.5;exitDx=0;exitDy=0;entryX=0;entryY=1;entryDx=0;entryDy=0;" edge="1" parent="1" source="mAihTgzkiO9ko0TlCXgG-72" target="mAihTgzkiO9ko0TlCXgG-59">
          <mxGeometry width="50" height="50" relative="1" as="geometry">
            <mxPoint x="-700" y="698" as="sourcePoint" />
            <mxPoint x="-650" y="648" as="targetPoint" />
            <Array as="points">
              <mxPoint x="-680" y="678" />
            </Array>
          </mxGeometry>
        </mxCell>
        <mxCell id="mAihTgzkiO9ko0TlCXgG-81" value="" style="endArrow=classic;html=1;rounded=0;exitX=1;exitY=0.5;exitDx=0;exitDy=0;entryX=0;entryY=0;entryDx=0;entryDy=0;" edge="1" parent="1" source="mAihTgzkiO9ko0TlCXgG-57" target="mAihTgzkiO9ko0TlCXgG-60">
          <mxGeometry width="50" height="50" relative="1" as="geometry">
            <mxPoint x="-690" y="648" as="sourcePoint" />
            <mxPoint x="-640" y="598" as="targetPoint" />
            <Array as="points">
              <mxPoint x="-680" y="598" />
            </Array>
          </mxGeometry>
        </mxCell>
        <mxCell id="mAihTgzkiO9ko0TlCXgG-82" value="" style="endArrow=classic;html=1;rounded=0;exitX=1;exitY=0.5;exitDx=0;exitDy=0;entryX=0;entryY=1;entryDx=0;entryDy=0;" edge="1" parent="1" source="mAihTgzkiO9ko0TlCXgG-76" target="mAihTgzkiO9ko0TlCXgG-60">
          <mxGeometry width="50" height="50" relative="1" as="geometry">
            <mxPoint x="-660" y="788" as="sourcePoint" />
            <mxPoint x="-610" y="738" as="targetPoint" />
            <Array as="points">
              <mxPoint x="-680" y="758" />
            </Array>
          </mxGeometry>
        </mxCell>
        <mxCell id="mAihTgzkiO9ko0TlCXgG-83" value="" style="endArrow=classic;html=1;rounded=0;exitX=1;exitY=0.5;exitDx=0;exitDy=0;entryX=0;entryY=0.5;entryDx=0;entryDy=0;" edge="1" parent="1" source="mAihTgzkiO9ko0TlCXgG-59" target="mAihTgzkiO9ko0TlCXgG-53">
          <mxGeometry width="50" height="50" relative="1" as="geometry">
            <mxPoint x="-570" y="668" as="sourcePoint" />
            <mxPoint x="-520" y="618" as="targetPoint" />
          </mxGeometry>
        </mxCell>
        <mxCell id="mAihTgzkiO9ko0TlCXgG-84" value="" style="endArrow=classic;html=1;rounded=0;exitX=1;exitY=0.5;exitDx=0;exitDy=0;entryX=0;entryY=0.5;entryDx=0;entryDy=0;" edge="1" parent="1" source="mAihTgzkiO9ko0TlCXgG-60" target="mAihTgzkiO9ko0TlCXgG-63">
          <mxGeometry width="50" height="50" relative="1" as="geometry">
            <mxPoint x="-590" y="698" as="sourcePoint" />
            <mxPoint x="-540" y="648" as="targetPoint" />
          </mxGeometry>
        </mxCell>
        <mxCell id="mAihTgzkiO9ko0TlCXgG-85" value="" style="group" vertex="1" connectable="0" parent="1">
          <mxGeometry x="-770" y="810" width="40" height="60" as="geometry" />
        </mxCell>
        <mxCell id="mAihTgzkiO9ko0TlCXgG-86" value="" style="group;strokeWidth=1;fillColor=#9A9B9E;strokeColor=default;container=0;" vertex="1" connectable="0" parent="mAihTgzkiO9ko0TlCXgG-85">
          <mxGeometry width="40" height="60" as="geometry" />
        </mxCell>
        <mxCell id="mAihTgzkiO9ko0TlCXgG-87" value="" style="rounded=0;whiteSpace=wrap;html=1;fillColor=#9A9B9E;" vertex="1" parent="mAihTgzkiO9ko0TlCXgG-85">
          <mxGeometry width="40" height="60" as="geometry" />
        </mxCell>
        <mxCell id="mAihTgzkiO9ko0TlCXgG-88" value="" style="triangle;whiteSpace=wrap;html=1;rotation=90;fillColor=#9A9B9E;" vertex="1" parent="mAihTgzkiO9ko0TlCXgG-85">
          <mxGeometry x="10" y="-10" width="20" height="40" as="geometry" />
        </mxCell>
        <mxCell id="mAihTgzkiO9ko0TlCXgG-89" value="" style="group" vertex="1" connectable="0" parent="1">
          <mxGeometry x="-770" y="890" width="40" height="60" as="geometry" />
        </mxCell>
        <mxCell id="mAihTgzkiO9ko0TlCXgG-90" value="" style="group;strokeWidth=1;fillColor=#9A9B9E;strokeColor=default;container=0;" vertex="1" connectable="0" parent="mAihTgzkiO9ko0TlCXgG-89">
          <mxGeometry width="40" height="60" as="geometry" />
        </mxCell>
        <mxCell id="mAihTgzkiO9ko0TlCXgG-91" value="" style="rounded=0;whiteSpace=wrap;html=1;fillColor=#9A9B9E;" vertex="1" parent="mAihTgzkiO9ko0TlCXgG-89">
          <mxGeometry width="40" height="60" as="geometry" />
        </mxCell>
        <mxCell id="mAihTgzkiO9ko0TlCXgG-92" value="" style="triangle;whiteSpace=wrap;html=1;rotation=90;fillColor=#9A9B9E;" vertex="1" parent="mAihTgzkiO9ko0TlCXgG-89">
          <mxGeometry x="10" y="-10" width="20" height="40" as="geometry" />
        </mxCell>
        <mxCell id="mAihTgzkiO9ko0TlCXgG-93" value="" style="group" vertex="1" connectable="0" parent="1">
          <mxGeometry x="-540" y="810" width="40" height="60" as="geometry" />
        </mxCell>
        <mxCell id="mAihTgzkiO9ko0TlCXgG-94" value="" style="group;strokeWidth=1;fillColor=#9A9B9E;strokeColor=default;container=0;" vertex="1" connectable="0" parent="mAihTgzkiO9ko0TlCXgG-93">
          <mxGeometry width="40" height="60" as="geometry" />
        </mxCell>
        <mxCell id="mAihTgzkiO9ko0TlCXgG-95" value="" style="rounded=0;whiteSpace=wrap;html=1;fillColor=#9A9B9E;" vertex="1" parent="mAihTgzkiO9ko0TlCXgG-93">
          <mxGeometry width="40" height="60" as="geometry" />
        </mxCell>
        <mxCell id="mAihTgzkiO9ko0TlCXgG-96" value="" style="triangle;whiteSpace=wrap;html=1;rotation=90;fillColor=#9A9B9E;" vertex="1" parent="mAihTgzkiO9ko0TlCXgG-93">
          <mxGeometry x="10" y="-10" width="20" height="40" as="geometry" />
        </mxCell>
        <mxCell id="mAihTgzkiO9ko0TlCXgG-97" value="" style="group" vertex="1" connectable="0" parent="1">
          <mxGeometry x="-540" y="890" width="40" height="60" as="geometry" />
        </mxCell>
        <mxCell id="mAihTgzkiO9ko0TlCXgG-98" value="" style="group;strokeWidth=1;fillColor=#9A9B9E;strokeColor=default;container=0;" vertex="1" connectable="0" parent="mAihTgzkiO9ko0TlCXgG-97">
          <mxGeometry width="40" height="60" as="geometry" />
        </mxCell>
        <mxCell id="mAihTgzkiO9ko0TlCXgG-99" value="" style="rounded=0;whiteSpace=wrap;html=1;fillColor=#9A9B9E;" vertex="1" parent="mAihTgzkiO9ko0TlCXgG-97">
          <mxGeometry width="40" height="60" as="geometry" />
        </mxCell>
        <mxCell id="mAihTgzkiO9ko0TlCXgG-100" value="" style="triangle;whiteSpace=wrap;html=1;rotation=90;fillColor=#9A9B9E;" vertex="1" parent="mAihTgzkiO9ko0TlCXgG-97">
          <mxGeometry x="10" y="-10" width="20" height="40" as="geometry" />
        </mxCell>
        <mxCell id="mAihTgzkiO9ko0TlCXgG-101" value="" style="endArrow=classic;html=1;rounded=0;entryX=0;entryY=0.5;entryDx=0;entryDy=0;exitX=1;exitY=0.5;exitDx=0;exitDy=0;" edge="1" parent="1" source="mAihTgzkiO9ko0TlCXgG-251" target="mAihTgzkiO9ko0TlCXgG-87">
          <mxGeometry width="50" height="50" relative="1" as="geometry">
            <mxPoint x="-930" y="860" as="sourcePoint" />
            <mxPoint x="-850" y="840" as="targetPoint" />
          </mxGeometry>
        </mxCell>
        <mxCell id="mAihTgzkiO9ko0TlCXgG-102" value="" style="endArrow=classic;html=1;rounded=0;entryX=0;entryY=0.5;entryDx=0;entryDy=0;exitX=1;exitY=0.5;exitDx=0;exitDy=0;" edge="1" parent="1" source="mAihTgzkiO9ko0TlCXgG-255" target="mAihTgzkiO9ko0TlCXgG-91">
          <mxGeometry width="50" height="50" relative="1" as="geometry">
            <mxPoint x="-950" y="930" as="sourcePoint" />
            <mxPoint x="-830" y="910" as="targetPoint" />
          </mxGeometry>
        </mxCell>
        <mxCell id="mAihTgzkiO9ko0TlCXgG-103" value="" style="endArrow=classic;html=1;rounded=0;entryX=0;entryY=0.5;entryDx=0;entryDy=0;exitX=1;exitY=0.5;exitDx=0;exitDy=0;" edge="1" parent="1" source="mAihTgzkiO9ko0TlCXgG-87" target="mAihTgzkiO9ko0TlCXgG-95">
          <mxGeometry width="50" height="50" relative="1" as="geometry">
            <mxPoint x="-640" y="920" as="sourcePoint" />
            <mxPoint x="-590" y="870" as="targetPoint" />
          </mxGeometry>
        </mxCell>
        <mxCell id="mAihTgzkiO9ko0TlCXgG-104" value="" style="endArrow=classic;html=1;rounded=0;entryX=0;entryY=0.5;entryDx=0;entryDy=0;exitX=1;exitY=0.5;exitDx=0;exitDy=0;" edge="1" parent="1" source="mAihTgzkiO9ko0TlCXgG-91" target="mAihTgzkiO9ko0TlCXgG-99">
          <mxGeometry width="50" height="50" relative="1" as="geometry">
            <mxPoint x="-630" y="970" as="sourcePoint" />
            <mxPoint x="-580" y="920" as="targetPoint" />
          </mxGeometry>
        </mxCell>
        <mxCell id="mAihTgzkiO9ko0TlCXgG-105" value="&lt;font style=&quot;font-size: 24px;&quot;&gt;$$&amp;gt;$$&lt;/font&gt;" style="ellipse;whiteSpace=wrap;html=1;aspect=fixed;fillColor=#F0F0F0;" vertex="1" parent="1">
          <mxGeometry x="-420.75" y="300" width="40" height="40" as="geometry" />
        </mxCell>
        <mxCell id="mAihTgzkiO9ko0TlCXgG-106" value="" style="endArrow=classic;html=1;rounded=0;entryX=0;entryY=0;entryDx=0;entryDy=0;exitX=1;exitY=0.5;exitDx=0;exitDy=0;" edge="1" parent="1" source="mAihTgzkiO9ko0TlCXgG-11" target="mAihTgzkiO9ko0TlCXgG-105">
          <mxGeometry width="50" height="50" relative="1" as="geometry">
            <mxPoint x="-500" y="360" as="sourcePoint" />
            <mxPoint x="-420.75" y="361" as="targetPoint" />
            <Array as="points">
              <mxPoint x="-450" y="240" />
            </Array>
          </mxGeometry>
        </mxCell>
        <mxCell id="mAihTgzkiO9ko0TlCXgG-107" value="" style="endArrow=classic;html=1;rounded=0;exitX=1;exitY=0.5;exitDx=0;exitDy=0;entryX=0;entryY=1;entryDx=0;entryDy=0;" edge="1" parent="1" source="mAihTgzkiO9ko0TlCXgG-21" target="mAihTgzkiO9ko0TlCXgG-105">
          <mxGeometry width="50" height="50" relative="1" as="geometry">
            <mxPoint x="-500" y="440" as="sourcePoint" />
            <mxPoint x="-440" y="420" as="targetPoint" />
            <Array as="points">
              <mxPoint x="-460" y="400" />
            </Array>
          </mxGeometry>
        </mxCell>
        <mxCell id="mAihTgzkiO9ko0TlCXgG-108" value="" style="endArrow=classic;html=1;rounded=0;entryX=0;entryY=0.5;entryDx=0;entryDy=0;exitX=1;exitY=0;exitDx=0;exitDy=0;" edge="1" parent="1" source="mAihTgzkiO9ko0TlCXgG-105" target="mAihTgzkiO9ko0TlCXgG-111">
          <mxGeometry width="50" height="50" relative="1" as="geometry">
            <mxPoint x="-410.75" y="481" as="sourcePoint" />
            <mxPoint x="-360.75" y="431" as="targetPoint" />
            <Array as="points">
              <mxPoint x="-360" y="240" />
            </Array>
          </mxGeometry>
        </mxCell>
        <mxCell id="mAihTgzkiO9ko0TlCXgG-109" value="" style="group" vertex="1" connectable="0" parent="1">
          <mxGeometry x="-310" y="210.25" width="40" height="60" as="geometry" />
        </mxCell>
        <mxCell id="mAihTgzkiO9ko0TlCXgG-110" value="" style="group;strokeWidth=1;fillColor=#9A9B9E;strokeColor=default;container=0;" vertex="1" connectable="0" parent="mAihTgzkiO9ko0TlCXgG-109">
          <mxGeometry width="40" height="60" as="geometry" />
        </mxCell>
        <mxCell id="mAihTgzkiO9ko0TlCXgG-111" value="" style="rounded=0;whiteSpace=wrap;html=1;fillColor=#9A9B9E;" vertex="1" parent="mAihTgzkiO9ko0TlCXgG-109">
          <mxGeometry width="40" height="60" as="geometry" />
        </mxCell>
        <mxCell id="mAihTgzkiO9ko0TlCXgG-112" value="" style="triangle;whiteSpace=wrap;html=1;rotation=90;fillColor=#9A9B9E;" vertex="1" parent="mAihTgzkiO9ko0TlCXgG-109">
          <mxGeometry x="10" y="-10" width="20" height="40" as="geometry" />
        </mxCell>
        <mxCell id="mAihTgzkiO9ko0TlCXgG-113" value="" style="group" vertex="1" connectable="0" parent="1">
          <mxGeometry x="-80" y="290" width="40" height="60" as="geometry" />
        </mxCell>
        <mxCell id="mAihTgzkiO9ko0TlCXgG-114" value="" style="group;strokeWidth=1;fillColor=#9A9B9E;strokeColor=default;container=0;" vertex="1" connectable="0" parent="mAihTgzkiO9ko0TlCXgG-113">
          <mxGeometry width="40" height="60" as="geometry" />
        </mxCell>
        <mxCell id="mAihTgzkiO9ko0TlCXgG-115" value="" style="rounded=0;whiteSpace=wrap;html=1;fillColor=#9A9B9E;" vertex="1" parent="mAihTgzkiO9ko0TlCXgG-113">
          <mxGeometry width="40" height="60" as="geometry" />
        </mxCell>
        <mxCell id="mAihTgzkiO9ko0TlCXgG-116" value="" style="triangle;whiteSpace=wrap;html=1;rotation=90;fillColor=#9A9B9E;" vertex="1" parent="mAihTgzkiO9ko0TlCXgG-113">
          <mxGeometry x="10" y="-10" width="20" height="40" as="geometry" />
        </mxCell>
        <mxCell id="mAihTgzkiO9ko0TlCXgG-117" value="" style="group" vertex="1" connectable="0" parent="1">
          <mxGeometry x="-310" y="370" width="40" height="60" as="geometry" />
        </mxCell>
        <mxCell id="mAihTgzkiO9ko0TlCXgG-118" value="" style="group;strokeWidth=1;fillColor=#9A9B9E;strokeColor=default;container=0;" vertex="1" connectable="0" parent="mAihTgzkiO9ko0TlCXgG-117">
          <mxGeometry width="40" height="60" as="geometry" />
        </mxCell>
        <mxCell id="mAihTgzkiO9ko0TlCXgG-119" value="" style="rounded=0;whiteSpace=wrap;html=1;fillColor=#9A9B9E;" vertex="1" parent="mAihTgzkiO9ko0TlCXgG-117">
          <mxGeometry width="40" height="60" as="geometry" />
        </mxCell>
        <mxCell id="mAihTgzkiO9ko0TlCXgG-120" value="" style="triangle;whiteSpace=wrap;html=1;rotation=90;fillColor=#9A9B9E;" vertex="1" parent="mAihTgzkiO9ko0TlCXgG-117">
          <mxGeometry x="10" y="-10" width="20" height="40" as="geometry" />
        </mxCell>
        <mxCell id="mAihTgzkiO9ko0TlCXgG-121" value="&lt;font style=&quot;font-size: 24px;&quot;&gt;$$&amp;gt;$$&lt;/font&gt;" style="ellipse;whiteSpace=wrap;html=1;aspect=fixed;fillColor=#F0F0F0;" vertex="1" parent="1">
          <mxGeometry x="-190" y="300" width="40" height="40" as="geometry" />
        </mxCell>
        <mxCell id="mAihTgzkiO9ko0TlCXgG-122" value="&lt;font style=&quot;font-size: 24px;&quot;&gt;$$&amp;gt;$$&lt;/font&gt;" style="ellipse;whiteSpace=wrap;html=1;aspect=fixed;fillColor=#F0F0F0;" vertex="1" parent="1">
          <mxGeometry x="-190" y="618" width="40" height="40" as="geometry" />
        </mxCell>
        <mxCell id="mAihTgzkiO9ko0TlCXgG-123" value="" style="group" vertex="1" connectable="0" parent="1">
          <mxGeometry x="-80" y="608" width="40" height="60" as="geometry" />
        </mxCell>
        <mxCell id="mAihTgzkiO9ko0TlCXgG-124" value="" style="group;strokeWidth=1;fillColor=#9A9B9E;strokeColor=default;container=0;" vertex="1" connectable="0" parent="mAihTgzkiO9ko0TlCXgG-123">
          <mxGeometry width="40" height="60" as="geometry" />
        </mxCell>
        <mxCell id="mAihTgzkiO9ko0TlCXgG-125" value="" style="rounded=0;whiteSpace=wrap;html=1;fillColor=#9A9B9E;" vertex="1" parent="mAihTgzkiO9ko0TlCXgG-123">
          <mxGeometry width="40" height="60" as="geometry" />
        </mxCell>
        <mxCell id="mAihTgzkiO9ko0TlCXgG-126" value="" style="triangle;whiteSpace=wrap;html=1;rotation=90;fillColor=#9A9B9E;" vertex="1" parent="mAihTgzkiO9ko0TlCXgG-123">
          <mxGeometry x="10" y="-10" width="20" height="40" as="geometry" />
        </mxCell>
        <mxCell id="mAihTgzkiO9ko0TlCXgG-127" value="" style="endArrow=classic;html=1;rounded=0;entryX=0;entryY=0.5;entryDx=0;entryDy=0;exitX=1;exitY=1;exitDx=0;exitDy=0;" edge="1" parent="1" source="mAihTgzkiO9ko0TlCXgG-105" target="mAihTgzkiO9ko0TlCXgG-119">
          <mxGeometry width="50" height="50" relative="1" as="geometry">
            <mxPoint x="-387" y="439.75" as="sourcePoint" />
            <mxPoint x="-340" y="469.75" as="targetPoint" />
            <Array as="points">
              <mxPoint x="-360" y="400" />
            </Array>
          </mxGeometry>
        </mxCell>
        <mxCell id="mAihTgzkiO9ko0TlCXgG-128" value="&lt;font style=&quot;font-size: 24px;&quot;&gt;$$&amp;gt;$$&lt;/font&gt;" style="ellipse;whiteSpace=wrap;html=1;aspect=fixed;fillColor=#F0F0F0;" vertex="1" parent="1">
          <mxGeometry x="-420.75" y="618" width="40" height="40" as="geometry" />
        </mxCell>
        <mxCell id="mAihTgzkiO9ko0TlCXgG-129" value="" style="endArrow=classic;html=1;rounded=0;entryX=0;entryY=1;entryDx=0;entryDy=0;exitX=0.99;exitY=0.541;exitDx=0;exitDy=0;exitPerimeter=0;" edge="1" parent="1" source="mAihTgzkiO9ko0TlCXgG-63" target="mAihTgzkiO9ko0TlCXgG-128">
          <mxGeometry width="50" height="50" relative="1" as="geometry">
            <mxPoint x="-490" y="730" as="sourcePoint" />
            <mxPoint x="-430.75" y="590.75" as="targetPoint" />
            <Array as="points">
              <mxPoint x="-450" y="720" />
            </Array>
          </mxGeometry>
        </mxCell>
        <mxCell id="mAihTgzkiO9ko0TlCXgG-130" value="" style="endArrow=classic;html=1;rounded=0;entryX=0;entryY=0.5;entryDx=0;entryDy=0;exitX=1;exitY=0;exitDx=0;exitDy=0;" edge="1" parent="1" source="mAihTgzkiO9ko0TlCXgG-128" target="mAihTgzkiO9ko0TlCXgG-133">
          <mxGeometry width="50" height="50" relative="1" as="geometry">
            <mxPoint x="-410.75" y="640.75" as="sourcePoint" />
            <mxPoint x="-360.75" y="590.75" as="targetPoint" />
            <Array as="points">
              <mxPoint x="-360" y="560" />
            </Array>
          </mxGeometry>
        </mxCell>
        <mxCell id="mAihTgzkiO9ko0TlCXgG-131" value="" style="group" vertex="1" connectable="0" parent="1">
          <mxGeometry x="-310" y="530" width="40" height="60" as="geometry" />
        </mxCell>
        <mxCell id="mAihTgzkiO9ko0TlCXgG-132" value="" style="group;strokeWidth=1;fillColor=#9A9B9E;strokeColor=default;container=0;" vertex="1" connectable="0" parent="mAihTgzkiO9ko0TlCXgG-131">
          <mxGeometry width="40" height="60" as="geometry" />
        </mxCell>
        <mxCell id="mAihTgzkiO9ko0TlCXgG-133" value="" style="rounded=0;whiteSpace=wrap;html=1;fillColor=#9A9B9E;" vertex="1" parent="mAihTgzkiO9ko0TlCXgG-131">
          <mxGeometry width="40" height="60" as="geometry" />
        </mxCell>
        <mxCell id="mAihTgzkiO9ko0TlCXgG-134" value="" style="triangle;whiteSpace=wrap;html=1;rotation=90;fillColor=#9A9B9E;" vertex="1" parent="mAihTgzkiO9ko0TlCXgG-131">
          <mxGeometry x="10" y="-10" width="20" height="40" as="geometry" />
        </mxCell>
        <mxCell id="mAihTgzkiO9ko0TlCXgG-135" value="" style="group" vertex="1" connectable="0" parent="1">
          <mxGeometry x="-310" y="690" width="40" height="60" as="geometry" />
        </mxCell>
        <mxCell id="mAihTgzkiO9ko0TlCXgG-136" value="" style="group;strokeWidth=1;fillColor=#9A9B9E;strokeColor=default;container=0;" vertex="1" connectable="0" parent="mAihTgzkiO9ko0TlCXgG-135">
          <mxGeometry width="40" height="60" as="geometry" />
        </mxCell>
        <mxCell id="mAihTgzkiO9ko0TlCXgG-137" value="" style="rounded=0;whiteSpace=wrap;html=1;fillColor=#9A9B9E;" vertex="1" parent="mAihTgzkiO9ko0TlCXgG-135">
          <mxGeometry width="40" height="60" as="geometry" />
        </mxCell>
        <mxCell id="mAihTgzkiO9ko0TlCXgG-138" value="" style="triangle;whiteSpace=wrap;html=1;rotation=90;fillColor=#9A9B9E;" vertex="1" parent="mAihTgzkiO9ko0TlCXgG-135">
          <mxGeometry x="10" y="-10" width="20" height="40" as="geometry" />
        </mxCell>
        <mxCell id="mAihTgzkiO9ko0TlCXgG-139" value="" style="endArrow=classic;html=1;rounded=0;entryX=0;entryY=0.5;entryDx=0;entryDy=0;exitX=1;exitY=1;exitDx=0;exitDy=0;" edge="1" parent="1" source="mAihTgzkiO9ko0TlCXgG-128" target="mAihTgzkiO9ko0TlCXgG-137">
          <mxGeometry width="50" height="50" relative="1" as="geometry">
            <mxPoint x="-387" y="599.5" as="sourcePoint" />
            <mxPoint x="-340" y="629.5" as="targetPoint" />
            <Array as="points">
              <mxPoint x="-360" y="720" />
            </Array>
          </mxGeometry>
        </mxCell>
        <mxCell id="mAihTgzkiO9ko0TlCXgG-140" value="" style="endArrow=classic;html=1;rounded=0;entryX=0;entryY=0;entryDx=0;entryDy=0;exitX=1;exitY=0.5;exitDx=0;exitDy=0;" edge="1" parent="1" source="mAihTgzkiO9ko0TlCXgG-111" target="mAihTgzkiO9ko0TlCXgG-121">
          <mxGeometry width="50" height="50" relative="1" as="geometry">
            <mxPoint x="-250" y="359" as="sourcePoint" />
            <mxPoint x="-165" y="384.75" as="targetPoint" />
            <Array as="points">
              <mxPoint x="-220" y="240" />
            </Array>
          </mxGeometry>
        </mxCell>
        <mxCell id="mAihTgzkiO9ko0TlCXgG-141" value="" style="endArrow=classic;html=1;rounded=0;exitX=1;exitY=0.5;exitDx=0;exitDy=0;entryX=0;entryY=1;entryDx=0;entryDy=0;" edge="1" parent="1" source="mAihTgzkiO9ko0TlCXgG-133" target="mAihTgzkiO9ko0TlCXgG-121">
          <mxGeometry width="50" height="50" relative="1" as="geometry">
            <mxPoint x="-240" y="539.75" as="sourcePoint" />
            <mxPoint x="-190" y="489.75" as="targetPoint" />
            <Array as="points">
              <mxPoint x="-220" y="560" />
            </Array>
          </mxGeometry>
        </mxCell>
        <mxCell id="mAihTgzkiO9ko0TlCXgG-142" value="" style="endArrow=classic;html=1;rounded=0;exitX=1;exitY=0.5;exitDx=0;exitDy=0;entryX=0;entryY=0;entryDx=0;entryDy=0;" edge="1" parent="1" source="mAihTgzkiO9ko0TlCXgG-119" target="mAihTgzkiO9ko0TlCXgG-122">
          <mxGeometry width="50" height="50" relative="1" as="geometry">
            <mxPoint x="-230" y="489.75" as="sourcePoint" />
            <mxPoint x="-180" y="439.75" as="targetPoint" />
            <Array as="points">
              <mxPoint x="-220" y="400" />
            </Array>
          </mxGeometry>
        </mxCell>
        <mxCell id="mAihTgzkiO9ko0TlCXgG-143" value="" style="endArrow=classic;html=1;rounded=0;exitX=1;exitY=0.5;exitDx=0;exitDy=0;entryX=0;entryY=1;entryDx=0;entryDy=0;" edge="1" parent="1" source="mAihTgzkiO9ko0TlCXgG-137" target="mAihTgzkiO9ko0TlCXgG-122">
          <mxGeometry width="50" height="50" relative="1" as="geometry">
            <mxPoint x="-200" y="629.75" as="sourcePoint" />
            <mxPoint x="-150" y="579.75" as="targetPoint" />
            <Array as="points">
              <mxPoint x="-220" y="720" />
            </Array>
          </mxGeometry>
        </mxCell>
        <mxCell id="mAihTgzkiO9ko0TlCXgG-144" value="" style="endArrow=classic;html=1;rounded=0;exitX=1;exitY=0.5;exitDx=0;exitDy=0;entryX=0;entryY=0.5;entryDx=0;entryDy=0;" edge="1" parent="1" source="mAihTgzkiO9ko0TlCXgG-121" target="mAihTgzkiO9ko0TlCXgG-115">
          <mxGeometry width="50" height="50" relative="1" as="geometry">
            <mxPoint x="-110" y="509.75" as="sourcePoint" />
            <mxPoint x="-60" y="459.75" as="targetPoint" />
          </mxGeometry>
        </mxCell>
        <mxCell id="mAihTgzkiO9ko0TlCXgG-145" value="" style="endArrow=classic;html=1;rounded=0;exitX=1;exitY=0.5;exitDx=0;exitDy=0;entryX=0;entryY=0.5;entryDx=0;entryDy=0;" edge="1" parent="1" source="mAihTgzkiO9ko0TlCXgG-122" target="mAihTgzkiO9ko0TlCXgG-125">
          <mxGeometry width="50" height="50" relative="1" as="geometry">
            <mxPoint x="-130" y="539.75" as="sourcePoint" />
            <mxPoint x="-80" y="489.75" as="targetPoint" />
          </mxGeometry>
        </mxCell>
        <mxCell id="mAihTgzkiO9ko0TlCXgG-146" value="" style="endArrow=classic;html=1;rounded=0;exitX=0.99;exitY=0.535;exitDx=0;exitDy=0;exitPerimeter=0;entryX=0;entryY=0;entryDx=0;entryDy=0;" edge="1" parent="1" source="mAihTgzkiO9ko0TlCXgG-53" target="mAihTgzkiO9ko0TlCXgG-128">
          <mxGeometry width="50" height="50" relative="1" as="geometry">
            <mxPoint x="-470" y="590" as="sourcePoint" />
            <mxPoint x="-420" y="540" as="targetPoint" />
            <Array as="points">
              <mxPoint x="-450" y="560" />
            </Array>
          </mxGeometry>
        </mxCell>
        <mxCell id="mAihTgzkiO9ko0TlCXgG-147" value="" style="group" vertex="1" connectable="0" parent="1">
          <mxGeometry x="-310" y="810" width="40" height="60" as="geometry" />
        </mxCell>
        <mxCell id="mAihTgzkiO9ko0TlCXgG-148" value="" style="group;strokeWidth=1;fillColor=#9A9B9E;strokeColor=default;container=0;" vertex="1" connectable="0" parent="mAihTgzkiO9ko0TlCXgG-147">
          <mxGeometry width="40" height="60" as="geometry" />
        </mxCell>
        <mxCell id="mAihTgzkiO9ko0TlCXgG-149" value="" style="rounded=0;whiteSpace=wrap;html=1;fillColor=#9A9B9E;" vertex="1" parent="mAihTgzkiO9ko0TlCXgG-147">
          <mxGeometry width="40" height="60" as="geometry" />
        </mxCell>
        <mxCell id="mAihTgzkiO9ko0TlCXgG-150" value="" style="triangle;whiteSpace=wrap;html=1;rotation=90;fillColor=#9A9B9E;" vertex="1" parent="mAihTgzkiO9ko0TlCXgG-147">
          <mxGeometry x="10" y="-10" width="20" height="40" as="geometry" />
        </mxCell>
        <mxCell id="mAihTgzkiO9ko0TlCXgG-151" value="" style="group" vertex="1" connectable="0" parent="1">
          <mxGeometry x="-310" y="890" width="40" height="60" as="geometry" />
        </mxCell>
        <mxCell id="mAihTgzkiO9ko0TlCXgG-152" value="" style="group;strokeWidth=1;fillColor=#9A9B9E;strokeColor=default;container=0;" vertex="1" connectable="0" parent="mAihTgzkiO9ko0TlCXgG-151">
          <mxGeometry width="40" height="60" as="geometry" />
        </mxCell>
        <mxCell id="mAihTgzkiO9ko0TlCXgG-153" value="" style="rounded=0;whiteSpace=wrap;html=1;fillColor=#9A9B9E;" vertex="1" parent="mAihTgzkiO9ko0TlCXgG-151">
          <mxGeometry width="40" height="60" as="geometry" />
        </mxCell>
        <mxCell id="mAihTgzkiO9ko0TlCXgG-154" value="" style="triangle;whiteSpace=wrap;html=1;rotation=90;fillColor=#9A9B9E;" vertex="1" parent="mAihTgzkiO9ko0TlCXgG-151">
          <mxGeometry x="10" y="-10" width="20" height="40" as="geometry" />
        </mxCell>
        <mxCell id="mAihTgzkiO9ko0TlCXgG-155" value="" style="group" vertex="1" connectable="0" parent="1">
          <mxGeometry x="-80" y="810" width="40" height="60" as="geometry" />
        </mxCell>
        <mxCell id="mAihTgzkiO9ko0TlCXgG-156" value="" style="group;strokeWidth=1;fillColor=#9A9B9E;strokeColor=default;container=0;" vertex="1" connectable="0" parent="mAihTgzkiO9ko0TlCXgG-155">
          <mxGeometry width="40" height="60" as="geometry" />
        </mxCell>
        <mxCell id="mAihTgzkiO9ko0TlCXgG-157" value="" style="rounded=0;whiteSpace=wrap;html=1;fillColor=#9A9B9E;" vertex="1" parent="mAihTgzkiO9ko0TlCXgG-155">
          <mxGeometry width="40" height="60" as="geometry" />
        </mxCell>
        <mxCell id="mAihTgzkiO9ko0TlCXgG-158" value="" style="triangle;whiteSpace=wrap;html=1;rotation=90;fillColor=#9A9B9E;" vertex="1" parent="mAihTgzkiO9ko0TlCXgG-155">
          <mxGeometry x="10" y="-10" width="20" height="40" as="geometry" />
        </mxCell>
        <mxCell id="mAihTgzkiO9ko0TlCXgG-159" value="" style="group" vertex="1" connectable="0" parent="1">
          <mxGeometry x="-80" y="890" width="40" height="60" as="geometry" />
        </mxCell>
        <mxCell id="mAihTgzkiO9ko0TlCXgG-160" value="" style="group;strokeWidth=1;fillColor=#9A9B9E;strokeColor=default;container=0;" vertex="1" connectable="0" parent="mAihTgzkiO9ko0TlCXgG-159">
          <mxGeometry width="40" height="60" as="geometry" />
        </mxCell>
        <mxCell id="mAihTgzkiO9ko0TlCXgG-161" value="" style="rounded=0;whiteSpace=wrap;html=1;fillColor=#9A9B9E;" vertex="1" parent="mAihTgzkiO9ko0TlCXgG-159">
          <mxGeometry width="40" height="60" as="geometry" />
        </mxCell>
        <mxCell id="mAihTgzkiO9ko0TlCXgG-162" value="" style="triangle;whiteSpace=wrap;html=1;rotation=90;fillColor=#9A9B9E;" vertex="1" parent="mAihTgzkiO9ko0TlCXgG-159">
          <mxGeometry x="10" y="-10" width="20" height="40" as="geometry" />
        </mxCell>
        <mxCell id="mAihTgzkiO9ko0TlCXgG-163" value="" style="endArrow=classic;html=1;rounded=0;entryX=0;entryY=0.5;entryDx=0;entryDy=0;exitX=1;exitY=0.5;exitDx=0;exitDy=0;" edge="1" parent="1" source="mAihTgzkiO9ko0TlCXgG-95" target="mAihTgzkiO9ko0TlCXgG-149">
          <mxGeometry width="50" height="50" relative="1" as="geometry">
            <mxPoint x="-480" y="850" as="sourcePoint" />
            <mxPoint x="-390" y="840" as="targetPoint" />
          </mxGeometry>
        </mxCell>
        <mxCell id="mAihTgzkiO9ko0TlCXgG-164" value="" style="endArrow=classic;html=1;rounded=0;entryX=0;entryY=0.5;entryDx=0;entryDy=0;exitX=1;exitY=0.5;exitDx=0;exitDy=0;" edge="1" parent="1" source="mAihTgzkiO9ko0TlCXgG-99" target="mAihTgzkiO9ko0TlCXgG-153">
          <mxGeometry width="50" height="50" relative="1" as="geometry">
            <mxPoint x="-490" y="930" as="sourcePoint" />
            <mxPoint x="-370" y="910" as="targetPoint" />
          </mxGeometry>
        </mxCell>
        <mxCell id="mAihTgzkiO9ko0TlCXgG-165" value="" style="endArrow=classic;html=1;rounded=0;entryX=0;entryY=0.5;entryDx=0;entryDy=0;exitX=1;exitY=0.5;exitDx=0;exitDy=0;" edge="1" parent="1" source="mAihTgzkiO9ko0TlCXgG-149" target="mAihTgzkiO9ko0TlCXgG-157">
          <mxGeometry width="50" height="50" relative="1" as="geometry">
            <mxPoint x="-180" y="920" as="sourcePoint" />
            <mxPoint x="-130" y="870" as="targetPoint" />
          </mxGeometry>
        </mxCell>
        <mxCell id="mAihTgzkiO9ko0TlCXgG-166" value="" style="endArrow=classic;html=1;rounded=0;entryX=0;entryY=0.5;entryDx=0;entryDy=0;exitX=1;exitY=0.5;exitDx=0;exitDy=0;" edge="1" parent="1" source="mAihTgzkiO9ko0TlCXgG-153" target="mAihTgzkiO9ko0TlCXgG-161">
          <mxGeometry width="50" height="50" relative="1" as="geometry">
            <mxPoint x="-170" y="970" as="sourcePoint" />
            <mxPoint x="-120" y="920" as="targetPoint" />
          </mxGeometry>
        </mxCell>
        <mxCell id="mAihTgzkiO9ko0TlCXgG-167" value="&lt;font style=&quot;font-size: 24px;&quot;&gt;$$&amp;gt;$$&lt;/font&gt;" style="ellipse;whiteSpace=wrap;html=1;aspect=fixed;fillColor=#F0F0F0;" vertex="1" parent="1">
          <mxGeometry x="30" y="450" width="40" height="40" as="geometry" />
        </mxCell>
        <mxCell id="mAihTgzkiO9ko0TlCXgG-168" value="" style="endArrow=classic;html=1;rounded=0;entryX=0;entryY=0;entryDx=0;entryDy=0;exitX=1;exitY=0.5;exitDx=0;exitDy=0;" edge="1" parent="1" source="mAihTgzkiO9ko0TlCXgG-115" target="mAihTgzkiO9ko0TlCXgG-167">
          <mxGeometry width="50" height="50" relative="1" as="geometry">
            <mxPoint x="-40" y="580" as="sourcePoint" />
            <mxPoint x="39.25" y="581" as="targetPoint" />
            <Array as="points">
              <mxPoint x="8" y="320" />
            </Array>
          </mxGeometry>
        </mxCell>
        <mxCell id="mAihTgzkiO9ko0TlCXgG-169" value="" style="endArrow=classic;html=1;rounded=0;entryX=0;entryY=1;entryDx=0;entryDy=0;exitX=1;exitY=0.5;exitDx=0;exitDy=0;" edge="1" parent="1" source="mAihTgzkiO9ko0TlCXgG-125" target="mAihTgzkiO9ko0TlCXgG-167">
          <mxGeometry width="50" height="50" relative="1" as="geometry">
            <mxPoint x="-40" y="660" as="sourcePoint" />
            <mxPoint x="29.25" y="651" as="targetPoint" />
            <Array as="points">
              <mxPoint x="10" y="638" />
            </Array>
          </mxGeometry>
        </mxCell>
        <mxCell id="mAihTgzkiO9ko0TlCXgG-170" value="" style="endArrow=classic;html=1;rounded=0;entryX=0;entryY=0.5;entryDx=0;entryDy=0;exitX=1;exitY=0;exitDx=0;exitDy=0;" edge="1" parent="1" source="mAihTgzkiO9ko0TlCXgG-167" target="mAihTgzkiO9ko0TlCXgG-173">
          <mxGeometry width="50" height="50" relative="1" as="geometry">
            <mxPoint x="49.25" y="701" as="sourcePoint" />
            <mxPoint x="99.25" y="651" as="targetPoint" />
            <Array as="points">
              <mxPoint x="100" y="400" />
            </Array>
          </mxGeometry>
        </mxCell>
        <mxCell id="mAihTgzkiO9ko0TlCXgG-171" value="" style="group" vertex="1" connectable="0" parent="1">
          <mxGeometry x="150" y="370" width="40" height="60" as="geometry" />
        </mxCell>
        <mxCell id="mAihTgzkiO9ko0TlCXgG-172" value="" style="group;strokeWidth=1;fillColor=#9A9B9E;strokeColor=default;container=0;" vertex="1" connectable="0" parent="mAihTgzkiO9ko0TlCXgG-171">
          <mxGeometry width="40" height="60" as="geometry" />
        </mxCell>
        <mxCell id="mAihTgzkiO9ko0TlCXgG-173" value="" style="rounded=0;whiteSpace=wrap;html=1;fillColor=#9A9B9E;" vertex="1" parent="mAihTgzkiO9ko0TlCXgG-171">
          <mxGeometry width="40" height="60" as="geometry" />
        </mxCell>
        <mxCell id="mAihTgzkiO9ko0TlCXgG-174" value="" style="triangle;whiteSpace=wrap;html=1;rotation=90;fillColor=#9A9B9E;" vertex="1" parent="mAihTgzkiO9ko0TlCXgG-171">
          <mxGeometry x="10" y="-10" width="20" height="40" as="geometry" />
        </mxCell>
        <mxCell id="mAihTgzkiO9ko0TlCXgG-175" value="" style="group" vertex="1" connectable="0" parent="1">
          <mxGeometry x="380" y="438.25" width="40" height="60" as="geometry" />
        </mxCell>
        <mxCell id="mAihTgzkiO9ko0TlCXgG-176" value="" style="group;strokeWidth=1;fillColor=#9A9B9E;strokeColor=default;container=0;" vertex="1" connectable="0" parent="mAihTgzkiO9ko0TlCXgG-175">
          <mxGeometry width="40" height="60" as="geometry" />
        </mxCell>
        <mxCell id="mAihTgzkiO9ko0TlCXgG-177" value="" style="rounded=0;whiteSpace=wrap;html=1;fillColor=#9A9B9E;" vertex="1" parent="mAihTgzkiO9ko0TlCXgG-175">
          <mxGeometry width="40" height="60" as="geometry" />
        </mxCell>
        <mxCell id="mAihTgzkiO9ko0TlCXgG-178" value="" style="triangle;whiteSpace=wrap;html=1;rotation=90;fillColor=#9A9B9E;" vertex="1" parent="mAihTgzkiO9ko0TlCXgG-175">
          <mxGeometry x="10" y="-10" width="20" height="40" as="geometry" />
        </mxCell>
        <mxCell id="mAihTgzkiO9ko0TlCXgG-179" value="" style="group" vertex="1" connectable="0" parent="1">
          <mxGeometry x="150" y="530" width="40" height="60" as="geometry" />
        </mxCell>
        <mxCell id="mAihTgzkiO9ko0TlCXgG-180" value="" style="group;strokeWidth=1;fillColor=#9A9B9E;strokeColor=default;container=0;" vertex="1" connectable="0" parent="mAihTgzkiO9ko0TlCXgG-179">
          <mxGeometry width="40" height="60" as="geometry" />
        </mxCell>
        <mxCell id="mAihTgzkiO9ko0TlCXgG-181" value="" style="rounded=0;whiteSpace=wrap;html=1;fillColor=#9A9B9E;" vertex="1" parent="mAihTgzkiO9ko0TlCXgG-179">
          <mxGeometry width="40" height="60" as="geometry" />
        </mxCell>
        <mxCell id="mAihTgzkiO9ko0TlCXgG-182" value="" style="triangle;whiteSpace=wrap;html=1;rotation=90;fillColor=#9A9B9E;" vertex="1" parent="mAihTgzkiO9ko0TlCXgG-179">
          <mxGeometry x="10" y="-10" width="20" height="40" as="geometry" />
        </mxCell>
        <mxCell id="mAihTgzkiO9ko0TlCXgG-183" value="&lt;font style=&quot;font-size: 24px;&quot;&gt;$$&amp;gt;$$&lt;/font&gt;" style="ellipse;whiteSpace=wrap;html=1;aspect=fixed;fillColor=#F0F0F0;" vertex="1" parent="1">
          <mxGeometry x="270" y="448.25" width="40" height="40" as="geometry" />
        </mxCell>
        <mxCell id="mAihTgzkiO9ko0TlCXgG-184" value="&lt;font style=&quot;font-size: 24px;&quot;&gt;$$&amp;gt;$$&lt;/font&gt;" style="ellipse;whiteSpace=wrap;html=1;aspect=fixed;fillColor=#F0F0F0;" vertex="1" parent="1">
          <mxGeometry x="270" y="860" width="40" height="40" as="geometry" />
        </mxCell>
        <mxCell id="mAihTgzkiO9ko0TlCXgG-185" value="" style="group" vertex="1" connectable="0" parent="1">
          <mxGeometry x="380" y="850" width="40" height="60" as="geometry" />
        </mxCell>
        <mxCell id="mAihTgzkiO9ko0TlCXgG-186" value="" style="group;strokeWidth=1;fillColor=#9A9B9E;strokeColor=default;container=0;" vertex="1" connectable="0" parent="mAihTgzkiO9ko0TlCXgG-185">
          <mxGeometry width="40" height="60" as="geometry" />
        </mxCell>
        <mxCell id="mAihTgzkiO9ko0TlCXgG-187" value="" style="rounded=0;whiteSpace=wrap;html=1;fillColor=#9A9B9E;" vertex="1" parent="mAihTgzkiO9ko0TlCXgG-185">
          <mxGeometry width="40" height="60" as="geometry" />
        </mxCell>
        <mxCell id="mAihTgzkiO9ko0TlCXgG-188" value="" style="triangle;whiteSpace=wrap;html=1;rotation=90;fillColor=#9A9B9E;" vertex="1" parent="mAihTgzkiO9ko0TlCXgG-185">
          <mxGeometry x="10" y="-10" width="20" height="40" as="geometry" />
        </mxCell>
        <mxCell id="mAihTgzkiO9ko0TlCXgG-189" value="" style="endArrow=classic;html=1;rounded=0;entryX=0;entryY=0.5;entryDx=0;entryDy=0;exitX=1;exitY=1;exitDx=0;exitDy=0;" edge="1" parent="1" source="mAihTgzkiO9ko0TlCXgG-167" target="mAihTgzkiO9ko0TlCXgG-181">
          <mxGeometry width="50" height="50" relative="1" as="geometry">
            <mxPoint x="73" y="659.75" as="sourcePoint" />
            <mxPoint x="120" y="689.75" as="targetPoint" />
            <Array as="points">
              <mxPoint x="100" y="560" />
            </Array>
          </mxGeometry>
        </mxCell>
        <mxCell id="mAihTgzkiO9ko0TlCXgG-190" value="&lt;font style=&quot;font-size: 24px;&quot;&gt;$$&amp;gt;$$&lt;/font&gt;" style="ellipse;whiteSpace=wrap;html=1;aspect=fixed;fillColor=#F0F0F0;" vertex="1" parent="1">
          <mxGeometry x="30" y="860" width="40" height="40" as="geometry" />
        </mxCell>
        <mxCell id="mAihTgzkiO9ko0TlCXgG-191" value="" style="endArrow=classic;html=1;rounded=0;entryX=0;entryY=0;entryDx=0;entryDy=0;exitX=1;exitY=0.5;exitDx=0;exitDy=0;" edge="1" parent="1" source="mAihTgzkiO9ko0TlCXgG-157" target="mAihTgzkiO9ko0TlCXgG-190">
          <mxGeometry width="50" height="50" relative="1" as="geometry">
            <mxPoint x="-40" y="739.75" as="sourcePoint" />
            <mxPoint x="39.25" y="740.75" as="targetPoint" />
            <Array as="points">
              <mxPoint y="840" />
            </Array>
          </mxGeometry>
        </mxCell>
        <mxCell id="mAihTgzkiO9ko0TlCXgG-192" value="" style="endArrow=classic;html=1;rounded=0;entryX=0;entryY=1;entryDx=0;entryDy=0;exitX=1;exitY=0.5;exitDx=0;exitDy=0;" edge="1" parent="1" source="mAihTgzkiO9ko0TlCXgG-161" target="mAihTgzkiO9ko0TlCXgG-190">
          <mxGeometry width="50" height="50" relative="1" as="geometry">
            <mxPoint x="-40" y="819.75" as="sourcePoint" />
            <mxPoint x="29.25" y="810.75" as="targetPoint" />
            <Array as="points">
              <mxPoint y="920" />
            </Array>
          </mxGeometry>
        </mxCell>
        <mxCell id="mAihTgzkiO9ko0TlCXgG-193" value="" style="endArrow=classic;html=1;rounded=0;entryX=0;entryY=0.5;entryDx=0;entryDy=0;exitX=1;exitY=0;exitDx=0;exitDy=0;" edge="1" parent="1" source="mAihTgzkiO9ko0TlCXgG-190" target="mAihTgzkiO9ko0TlCXgG-196">
          <mxGeometry width="50" height="50" relative="1" as="geometry">
            <mxPoint x="49.25" y="860.75" as="sourcePoint" />
            <mxPoint x="99.25" y="810.75" as="targetPoint" />
            <Array as="points">
              <mxPoint x="100" y="840" />
            </Array>
          </mxGeometry>
        </mxCell>
        <mxCell id="mAihTgzkiO9ko0TlCXgG-194" value="" style="group" vertex="1" connectable="0" parent="1">
          <mxGeometry x="150" y="809.75" width="40" height="60" as="geometry" />
        </mxCell>
        <mxCell id="mAihTgzkiO9ko0TlCXgG-195" value="" style="group;strokeWidth=1;fillColor=#9A9B9E;strokeColor=default;container=0;" vertex="1" connectable="0" parent="mAihTgzkiO9ko0TlCXgG-194">
          <mxGeometry width="40" height="60" as="geometry" />
        </mxCell>
        <mxCell id="mAihTgzkiO9ko0TlCXgG-196" value="" style="rounded=0;whiteSpace=wrap;html=1;fillColor=#9A9B9E;" vertex="1" parent="mAihTgzkiO9ko0TlCXgG-194">
          <mxGeometry width="40" height="60" as="geometry" />
        </mxCell>
        <mxCell id="mAihTgzkiO9ko0TlCXgG-197" value="" style="triangle;whiteSpace=wrap;html=1;rotation=90;fillColor=#9A9B9E;" vertex="1" parent="mAihTgzkiO9ko0TlCXgG-194">
          <mxGeometry x="10" y="-10" width="20" height="40" as="geometry" />
        </mxCell>
        <mxCell id="mAihTgzkiO9ko0TlCXgG-198" value="" style="group" vertex="1" connectable="0" parent="1">
          <mxGeometry x="150" y="890" width="40" height="60" as="geometry" />
        </mxCell>
        <mxCell id="mAihTgzkiO9ko0TlCXgG-199" value="" style="group;strokeWidth=1;fillColor=#9A9B9E;strokeColor=default;container=0;" vertex="1" connectable="0" parent="mAihTgzkiO9ko0TlCXgG-198">
          <mxGeometry width="40" height="60" as="geometry" />
        </mxCell>
        <mxCell id="mAihTgzkiO9ko0TlCXgG-200" value="" style="rounded=0;whiteSpace=wrap;html=1;fillColor=#9A9B9E;" vertex="1" parent="mAihTgzkiO9ko0TlCXgG-198">
          <mxGeometry width="40" height="60" as="geometry" />
        </mxCell>
        <mxCell id="mAihTgzkiO9ko0TlCXgG-201" value="" style="triangle;whiteSpace=wrap;html=1;rotation=90;fillColor=#9A9B9E;" vertex="1" parent="mAihTgzkiO9ko0TlCXgG-198">
          <mxGeometry x="10" y="-10" width="20" height="40" as="geometry" />
        </mxCell>
        <mxCell id="mAihTgzkiO9ko0TlCXgG-202" value="" style="endArrow=classic;html=1;rounded=0;entryX=0;entryY=0.5;entryDx=0;entryDy=0;exitX=1;exitY=1;exitDx=0;exitDy=0;" edge="1" parent="1" source="mAihTgzkiO9ko0TlCXgG-190" target="mAihTgzkiO9ko0TlCXgG-200">
          <mxGeometry width="50" height="50" relative="1" as="geometry">
            <mxPoint x="73" y="819.5" as="sourcePoint" />
            <mxPoint x="120" y="849.5" as="targetPoint" />
            <Array as="points">
              <mxPoint x="100" y="920" />
            </Array>
          </mxGeometry>
        </mxCell>
        <mxCell id="mAihTgzkiO9ko0TlCXgG-203" value="" style="endArrow=classic;html=1;rounded=0;entryX=0;entryY=0;entryDx=0;entryDy=0;exitX=1;exitY=0.5;exitDx=0;exitDy=0;" edge="1" parent="1" source="mAihTgzkiO9ko0TlCXgG-173" target="mAihTgzkiO9ko0TlCXgG-183">
          <mxGeometry width="50" height="50" relative="1" as="geometry">
            <mxPoint x="210" y="579" as="sourcePoint" />
            <mxPoint x="295" y="604.75" as="targetPoint" />
            <Array as="points">
              <mxPoint x="240" y="400" />
            </Array>
          </mxGeometry>
        </mxCell>
        <mxCell id="mAihTgzkiO9ko0TlCXgG-204" value="" style="endArrow=classic;html=1;rounded=0;exitX=1;exitY=0.5;exitDx=0;exitDy=0;entryX=0;entryY=1;entryDx=0;entryDy=0;" edge="1" parent="1" source="mAihTgzkiO9ko0TlCXgG-196" target="mAihTgzkiO9ko0TlCXgG-183">
          <mxGeometry width="50" height="50" relative="1" as="geometry">
            <mxPoint x="220" y="759.75" as="sourcePoint" />
            <mxPoint x="270" y="709.75" as="targetPoint" />
            <Array as="points">
              <mxPoint x="240" y="840" />
            </Array>
          </mxGeometry>
        </mxCell>
        <mxCell id="mAihTgzkiO9ko0TlCXgG-205" value="" style="endArrow=classic;html=1;rounded=0;exitX=1;exitY=0.5;exitDx=0;exitDy=0;entryX=0;entryY=0;entryDx=0;entryDy=0;" edge="1" parent="1" source="mAihTgzkiO9ko0TlCXgG-181" target="mAihTgzkiO9ko0TlCXgG-184">
          <mxGeometry width="50" height="50" relative="1" as="geometry">
            <mxPoint x="230" y="709.75" as="sourcePoint" />
            <mxPoint x="280" y="659.75" as="targetPoint" />
            <Array as="points">
              <mxPoint x="240" y="560" />
            </Array>
          </mxGeometry>
        </mxCell>
        <mxCell id="mAihTgzkiO9ko0TlCXgG-206" value="" style="endArrow=classic;html=1;rounded=0;exitX=1;exitY=0.5;exitDx=0;exitDy=0;entryX=0;entryY=1;entryDx=0;entryDy=0;" edge="1" parent="1" source="mAihTgzkiO9ko0TlCXgG-200" target="mAihTgzkiO9ko0TlCXgG-184">
          <mxGeometry width="50" height="50" relative="1" as="geometry">
            <mxPoint x="260" y="849.75" as="sourcePoint" />
            <mxPoint x="310" y="799.75" as="targetPoint" />
            <Array as="points">
              <mxPoint x="240" y="920" />
            </Array>
          </mxGeometry>
        </mxCell>
        <mxCell id="mAihTgzkiO9ko0TlCXgG-207" value="" style="endArrow=classic;html=1;rounded=0;exitX=1;exitY=0.5;exitDx=0;exitDy=0;entryX=0;entryY=0.5;entryDx=0;entryDy=0;" edge="1" parent="1" source="mAihTgzkiO9ko0TlCXgG-183" target="mAihTgzkiO9ko0TlCXgG-177">
          <mxGeometry width="50" height="50" relative="1" as="geometry">
            <mxPoint x="350" y="729.75" as="sourcePoint" />
            <mxPoint x="400" y="679.75" as="targetPoint" />
          </mxGeometry>
        </mxCell>
        <mxCell id="mAihTgzkiO9ko0TlCXgG-208" value="" style="endArrow=classic;html=1;rounded=0;exitX=1;exitY=0.5;exitDx=0;exitDy=0;entryX=0;entryY=0.5;entryDx=0;entryDy=0;" edge="1" parent="1" source="mAihTgzkiO9ko0TlCXgG-184" target="mAihTgzkiO9ko0TlCXgG-187">
          <mxGeometry width="50" height="50" relative="1" as="geometry">
            <mxPoint x="330" y="759.75" as="sourcePoint" />
            <mxPoint x="380" y="709.75" as="targetPoint" />
          </mxGeometry>
        </mxCell>
        <mxCell id="mAihTgzkiO9ko0TlCXgG-209" value="&lt;font style=&quot;font-size: 24px;&quot;&gt;$$-$$&lt;/font&gt;" style="ellipse;whiteSpace=wrap;html=1;aspect=fixed;fillColor=#F0F0F0;" vertex="1" parent="1">
          <mxGeometry x="500" y="650" width="40" height="40" as="geometry" />
        </mxCell>
        <mxCell id="mAihTgzkiO9ko0TlCXgG-210" value="" style="endArrow=classic;html=1;rounded=0;exitX=1;exitY=0.5;exitDx=0;exitDy=0;entryX=0;entryY=0;entryDx=0;entryDy=0;" edge="1" parent="1" source="mAihTgzkiO9ko0TlCXgG-177" target="mAihTgzkiO9ko0TlCXgG-209">
          <mxGeometry width="50" height="50" relative="1" as="geometry">
            <mxPoint x="550" y="560" as="sourcePoint" />
            <mxPoint x="600" y="510" as="targetPoint" />
            <Array as="points">
              <mxPoint x="470" y="468" />
            </Array>
          </mxGeometry>
        </mxCell>
        <mxCell id="mAihTgzkiO9ko0TlCXgG-211" value="" style="endArrow=classic;html=1;rounded=0;entryX=0;entryY=1;entryDx=0;entryDy=0;exitX=1;exitY=0.5;exitDx=0;exitDy=0;" edge="1" parent="1" source="mAihTgzkiO9ko0TlCXgG-187" target="mAihTgzkiO9ko0TlCXgG-209">
          <mxGeometry width="50" height="50" relative="1" as="geometry">
            <mxPoint x="470" y="750" as="sourcePoint" />
            <mxPoint x="520" y="700" as="targetPoint" />
            <Array as="points">
              <mxPoint x="470" y="880" />
            </Array>
          </mxGeometry>
        </mxCell>
        <mxCell id="mAihTgzkiO9ko0TlCXgG-212" value="" style="group" vertex="1" connectable="0" parent="1">
          <mxGeometry x="610" y="640" width="40" height="60" as="geometry" />
        </mxCell>
        <mxCell id="mAihTgzkiO9ko0TlCXgG-213" value="" style="group;strokeWidth=1;fillColor=#9A9B9E;strokeColor=default;container=0;" vertex="1" connectable="0" parent="mAihTgzkiO9ko0TlCXgG-212">
          <mxGeometry width="40" height="60" as="geometry" />
        </mxCell>
        <mxCell id="mAihTgzkiO9ko0TlCXgG-214" value="" style="rounded=0;whiteSpace=wrap;html=1;fillColor=#9A9B9E;" vertex="1" parent="mAihTgzkiO9ko0TlCXgG-212">
          <mxGeometry width="40" height="60" as="geometry" />
        </mxCell>
        <mxCell id="mAihTgzkiO9ko0TlCXgG-215" value="" style="triangle;whiteSpace=wrap;html=1;rotation=90;fillColor=#9A9B9E;" vertex="1" parent="mAihTgzkiO9ko0TlCXgG-212">
          <mxGeometry x="10" y="-10" width="20" height="40" as="geometry" />
        </mxCell>
        <mxCell id="mAihTgzkiO9ko0TlCXgG-216" value="" style="endArrow=classic;html=1;rounded=0;exitX=1;exitY=0.5;exitDx=0;exitDy=0;entryX=0;entryY=0.5;entryDx=0;entryDy=0;" edge="1" parent="1" source="mAihTgzkiO9ko0TlCXgG-209" target="mAihTgzkiO9ko0TlCXgG-214">
          <mxGeometry width="50" height="50" relative="1" as="geometry">
            <mxPoint x="560" y="730" as="sourcePoint" />
            <mxPoint x="610" y="680" as="targetPoint" />
          </mxGeometry>
        </mxCell>
        <mxCell id="mAihTgzkiO9ko0TlCXgG-217" value="" style="group" vertex="1" connectable="0" parent="1">
          <mxGeometry x="-1000" y="170" width="40" height="60" as="geometry" />
        </mxCell>
        <mxCell id="mAihTgzkiO9ko0TlCXgG-218" value="" style="group;strokeWidth=1;fillColor=#9A9B9E;strokeColor=default;container=0;" vertex="1" connectable="0" parent="mAihTgzkiO9ko0TlCXgG-217">
          <mxGeometry width="40" height="60" as="geometry" />
        </mxCell>
        <mxCell id="mAihTgzkiO9ko0TlCXgG-219" value="" style="rounded=0;whiteSpace=wrap;html=1;fillColor=#9A9B9E;" vertex="1" parent="mAihTgzkiO9ko0TlCXgG-217">
          <mxGeometry width="40" height="60" as="geometry" />
        </mxCell>
        <mxCell id="mAihTgzkiO9ko0TlCXgG-220" value="" style="triangle;whiteSpace=wrap;html=1;rotation=90;fillColor=#9A9B9E;" vertex="1" parent="mAihTgzkiO9ko0TlCXgG-217">
          <mxGeometry x="10" y="-10" width="20" height="40" as="geometry" />
        </mxCell>
        <mxCell id="mAihTgzkiO9ko0TlCXgG-221" value="" style="group" vertex="1" connectable="0" parent="1">
          <mxGeometry x="-1000" y="249.75" width="40" height="60" as="geometry" />
        </mxCell>
        <mxCell id="mAihTgzkiO9ko0TlCXgG-222" value="" style="group;strokeWidth=1;fillColor=#9A9B9E;strokeColor=default;container=0;" vertex="1" connectable="0" parent="mAihTgzkiO9ko0TlCXgG-221">
          <mxGeometry width="40" height="60" as="geometry" />
        </mxCell>
        <mxCell id="mAihTgzkiO9ko0TlCXgG-223" value="" style="rounded=0;whiteSpace=wrap;html=1;fillColor=#9A9B9E;" vertex="1" parent="mAihTgzkiO9ko0TlCXgG-221">
          <mxGeometry width="40" height="60" as="geometry" />
        </mxCell>
        <mxCell id="mAihTgzkiO9ko0TlCXgG-224" value="" style="triangle;whiteSpace=wrap;html=1;rotation=90;fillColor=#9A9B9E;" vertex="1" parent="mAihTgzkiO9ko0TlCXgG-221">
          <mxGeometry x="10" y="-10" width="20" height="40" as="geometry" />
        </mxCell>
        <mxCell id="mAihTgzkiO9ko0TlCXgG-225" value="" style="group" vertex="1" connectable="0" parent="1">
          <mxGeometry x="-1000" y="329.75" width="40" height="60" as="geometry" />
        </mxCell>
        <mxCell id="mAihTgzkiO9ko0TlCXgG-226" value="" style="group;strokeWidth=1;fillColor=#9A9B9E;strokeColor=default;container=0;" vertex="1" connectable="0" parent="mAihTgzkiO9ko0TlCXgG-225">
          <mxGeometry width="40" height="60" as="geometry" />
        </mxCell>
        <mxCell id="mAihTgzkiO9ko0TlCXgG-227" value="" style="rounded=0;whiteSpace=wrap;html=1;fillColor=#9A9B9E;" vertex="1" parent="mAihTgzkiO9ko0TlCXgG-225">
          <mxGeometry width="40" height="60" as="geometry" />
        </mxCell>
        <mxCell id="mAihTgzkiO9ko0TlCXgG-228" value="" style="triangle;whiteSpace=wrap;html=1;rotation=90;fillColor=#9A9B9E;" vertex="1" parent="mAihTgzkiO9ko0TlCXgG-225">
          <mxGeometry x="10" y="-10" width="20" height="40" as="geometry" />
        </mxCell>
        <mxCell id="mAihTgzkiO9ko0TlCXgG-229" value="" style="group" vertex="1" connectable="0" parent="1">
          <mxGeometry x="-1000" y="409.5" width="40" height="60" as="geometry" />
        </mxCell>
        <mxCell id="mAihTgzkiO9ko0TlCXgG-230" value="" style="group;strokeWidth=1;fillColor=#9A9B9E;strokeColor=default;container=0;" vertex="1" connectable="0" parent="mAihTgzkiO9ko0TlCXgG-229">
          <mxGeometry width="40" height="60" as="geometry" />
        </mxCell>
        <mxCell id="mAihTgzkiO9ko0TlCXgG-231" value="" style="rounded=0;whiteSpace=wrap;html=1;fillColor=#9A9B9E;" vertex="1" parent="mAihTgzkiO9ko0TlCXgG-229">
          <mxGeometry width="40" height="60" as="geometry" />
        </mxCell>
        <mxCell id="mAihTgzkiO9ko0TlCXgG-232" value="" style="triangle;whiteSpace=wrap;html=1;rotation=90;fillColor=#9A9B9E;" vertex="1" parent="mAihTgzkiO9ko0TlCXgG-229">
          <mxGeometry x="10" y="-10" width="20" height="40" as="geometry" />
        </mxCell>
        <mxCell id="mAihTgzkiO9ko0TlCXgG-233" value="" style="group" vertex="1" connectable="0" parent="1">
          <mxGeometry x="-1000" y="488" width="40" height="60" as="geometry" />
        </mxCell>
        <mxCell id="mAihTgzkiO9ko0TlCXgG-234" value="" style="group;strokeWidth=1;fillColor=#9A9B9E;strokeColor=default;container=0;" vertex="1" connectable="0" parent="mAihTgzkiO9ko0TlCXgG-233">
          <mxGeometry width="40" height="60" as="geometry" />
        </mxCell>
        <mxCell id="mAihTgzkiO9ko0TlCXgG-235" value="" style="rounded=0;whiteSpace=wrap;html=1;fillColor=#9A9B9E;" vertex="1" parent="mAihTgzkiO9ko0TlCXgG-233">
          <mxGeometry width="40" height="60" as="geometry" />
        </mxCell>
        <mxCell id="mAihTgzkiO9ko0TlCXgG-236" value="" style="triangle;whiteSpace=wrap;html=1;rotation=90;fillColor=#9A9B9E;" vertex="1" parent="mAihTgzkiO9ko0TlCXgG-233">
          <mxGeometry x="10" y="-10" width="20" height="40" as="geometry" />
        </mxCell>
        <mxCell id="mAihTgzkiO9ko0TlCXgG-237" value="" style="group" vertex="1" connectable="0" parent="1">
          <mxGeometry x="-1000" y="567.75" width="40" height="60" as="geometry" />
        </mxCell>
        <mxCell id="mAihTgzkiO9ko0TlCXgG-238" value="" style="group;strokeWidth=1;fillColor=#9A9B9E;strokeColor=default;container=0;" vertex="1" connectable="0" parent="mAihTgzkiO9ko0TlCXgG-237">
          <mxGeometry width="40" height="60" as="geometry" />
        </mxCell>
        <mxCell id="mAihTgzkiO9ko0TlCXgG-239" value="" style="rounded=0;whiteSpace=wrap;html=1;fillColor=#9A9B9E;" vertex="1" parent="mAihTgzkiO9ko0TlCXgG-237">
          <mxGeometry width="40" height="60" as="geometry" />
        </mxCell>
        <mxCell id="mAihTgzkiO9ko0TlCXgG-240" value="" style="triangle;whiteSpace=wrap;html=1;rotation=90;fillColor=#9A9B9E;" vertex="1" parent="mAihTgzkiO9ko0TlCXgG-237">
          <mxGeometry x="10" y="-10" width="20" height="40" as="geometry" />
        </mxCell>
        <mxCell id="mAihTgzkiO9ko0TlCXgG-241" value="" style="group" vertex="1" connectable="0" parent="1">
          <mxGeometry x="-1000" y="647.75" width="40" height="60" as="geometry" />
        </mxCell>
        <mxCell id="mAihTgzkiO9ko0TlCXgG-242" value="" style="group;strokeWidth=1;fillColor=#9A9B9E;strokeColor=default;container=0;" vertex="1" connectable="0" parent="mAihTgzkiO9ko0TlCXgG-241">
          <mxGeometry width="40" height="60" as="geometry" />
        </mxCell>
        <mxCell id="mAihTgzkiO9ko0TlCXgG-243" value="" style="rounded=0;whiteSpace=wrap;html=1;fillColor=#9A9B9E;" vertex="1" parent="mAihTgzkiO9ko0TlCXgG-241">
          <mxGeometry width="40" height="60" as="geometry" />
        </mxCell>
        <mxCell id="mAihTgzkiO9ko0TlCXgG-244" value="" style="triangle;whiteSpace=wrap;html=1;rotation=90;fillColor=#9A9B9E;" vertex="1" parent="mAihTgzkiO9ko0TlCXgG-241">
          <mxGeometry x="10" y="-10" width="20" height="40" as="geometry" />
        </mxCell>
        <mxCell id="mAihTgzkiO9ko0TlCXgG-245" value="" style="group" vertex="1" connectable="0" parent="1">
          <mxGeometry x="-1000" y="727.5" width="40" height="60" as="geometry" />
        </mxCell>
        <mxCell id="mAihTgzkiO9ko0TlCXgG-246" value="" style="group;strokeWidth=1;fillColor=#9A9B9E;strokeColor=default;container=0;" vertex="1" connectable="0" parent="mAihTgzkiO9ko0TlCXgG-245">
          <mxGeometry width="40" height="60" as="geometry" />
        </mxCell>
        <mxCell id="mAihTgzkiO9ko0TlCXgG-247" value="" style="rounded=0;whiteSpace=wrap;html=1;fillColor=#9A9B9E;" vertex="1" parent="mAihTgzkiO9ko0TlCXgG-245">
          <mxGeometry width="40" height="60" as="geometry" />
        </mxCell>
        <mxCell id="mAihTgzkiO9ko0TlCXgG-248" value="" style="triangle;whiteSpace=wrap;html=1;rotation=90;fillColor=#9A9B9E;" vertex="1" parent="mAihTgzkiO9ko0TlCXgG-245">
          <mxGeometry x="10" y="-10" width="20" height="40" as="geometry" />
        </mxCell>
        <mxCell id="mAihTgzkiO9ko0TlCXgG-249" value="" style="group" vertex="1" connectable="0" parent="1">
          <mxGeometry x="-1000" y="809.75" width="40" height="60" as="geometry" />
        </mxCell>
        <mxCell id="mAihTgzkiO9ko0TlCXgG-250" value="" style="group;strokeWidth=1;fillColor=#9A9B9E;strokeColor=default;container=0;" vertex="1" connectable="0" parent="mAihTgzkiO9ko0TlCXgG-249">
          <mxGeometry width="40" height="60" as="geometry" />
        </mxCell>
        <mxCell id="mAihTgzkiO9ko0TlCXgG-251" value="" style="rounded=0;whiteSpace=wrap;html=1;fillColor=#9A9B9E;" vertex="1" parent="mAihTgzkiO9ko0TlCXgG-249">
          <mxGeometry width="40" height="60" as="geometry" />
        </mxCell>
        <mxCell id="mAihTgzkiO9ko0TlCXgG-252" value="" style="triangle;whiteSpace=wrap;html=1;rotation=90;fillColor=#9A9B9E;" vertex="1" parent="mAihTgzkiO9ko0TlCXgG-249">
          <mxGeometry x="10" y="-10" width="20" height="40" as="geometry" />
        </mxCell>
        <mxCell id="mAihTgzkiO9ko0TlCXgG-253" value="" style="group" vertex="1" connectable="0" parent="1">
          <mxGeometry x="-1000" y="889.75" width="40" height="60" as="geometry" />
        </mxCell>
        <mxCell id="mAihTgzkiO9ko0TlCXgG-254" value="" style="group;strokeWidth=1;fillColor=#9A9B9E;strokeColor=default;container=0;" vertex="1" connectable="0" parent="mAihTgzkiO9ko0TlCXgG-253">
          <mxGeometry width="40" height="60" as="geometry" />
        </mxCell>
        <mxCell id="mAihTgzkiO9ko0TlCXgG-255" value="" style="rounded=0;whiteSpace=wrap;html=1;fillColor=#9A9B9E;" vertex="1" parent="mAihTgzkiO9ko0TlCXgG-253">
          <mxGeometry width="40" height="60" as="geometry" />
        </mxCell>
        <mxCell id="mAihTgzkiO9ko0TlCXgG-256" value="" style="triangle;whiteSpace=wrap;html=1;rotation=90;fillColor=#9A9B9E;" vertex="1" parent="mAihTgzkiO9ko0TlCXgG-253">
          <mxGeometry x="10" y="-10" width="20" height="40" as="geometry" />
        </mxCell>
        <mxCell id="mAihTgzkiO9ko0TlCXgG-257" value="" style="shape=ellipse;fillColor=#000000;strokeColor=none;html=1;sketch=0;" vertex="1" parent="1">
          <mxGeometry x="-850.75" y="200.25" width="10" height="10" as="geometry" />
        </mxCell>
        <mxCell id="mAihTgzkiO9ko0TlCXgG-258" value="" style="shape=ellipse;fillColor=#000000;strokeColor=none;html=1;sketch=0;" vertex="1" parent="1">
          <mxGeometry x="-850.75" y="430" width="10" height="10" as="geometry" />
        </mxCell>
        <mxCell id="mAihTgzkiO9ko0TlCXgG-259" value="" style="shape=ellipse;fillColor=#000000;strokeColor=none;html=1;sketch=0;" vertex="1" parent="1">
          <mxGeometry x="-850.75" y="520" width="10" height="10" as="geometry" />
        </mxCell>
        <mxCell id="mAihTgzkiO9ko0TlCXgG-260" value="" style="shape=ellipse;fillColor=#000000;strokeColor=none;html=1;sketch=0;" vertex="1" parent="1">
          <mxGeometry x="-850.75" y="750" width="10" height="10" as="geometry" />
        </mxCell>
      </root>
    </mxGraphModel>
  </diagram>
</mxfile>
